<svg xmlns="http://www.w3.org/2000/svg" viewBox="0 0 7018.6 1859.6"><path d="M868.5 23.2c467.3 0 846.1 381.5 846.1 852.2s-378.8 852.2-846.1 852.2S22.3 1346.1 22.3 875.4 401.2 23.2 868.5 23.2" fill-rule="evenodd" clip-rule="evenodd" fill="#fff"/><path d="M1992.9 1156.6c0 62.1 15.7 117.5 47 166.2 31.3 48.7 84.5 73 159.4 73 54.5 0 96-17.3 124.6-52s47.7-72.2 57.2-112.6c4.1-15.5 6.8-30.5 8.2-45s2.1-28 2.1-40.4c0-65.2-14.7-123.7-43.9-175.5-29.3-51.8-81.4-77.6-156.3-77.6-79 0-131.8 27.2-158.3 81.5-26.6 54.4-39.9 114.1-39.9 179.4v4.6-1.6h-.1zm1220.9-9.4c0-10.5-.3-22-1-34.6-.6-12.6-2.2-25.2-4.8-37.7-7.7-45.1-25.6-86.5-53.8-124.3-28.2-37.7-75.6-56.6-142.3-56.6s-114.4 18.9-143.3 56.6c-28.8 37.7-46.5 79.2-52.9 124.3-2.6 12.6-4.2 25.2-4.8 37.7-.7 12.6-1 24.7-1 36.2s.3 23.6 1 36.2c.6 12.6 2.2 25.2 4.8 37.7 6.4 45.1 24 86.5 52.9 124.3 28.9 37.7 76.6 56.6 143.3 56.6s114.1-18.9 142.3-56.6 46.2-79.2 53.8-124.3c2.6-12.6 4.2-25.2 4.8-37.7.6-12.6 1-24.7 1-36.2v-1.6zm225.2-48.5c1.1 16.2 1.7 32.9 1.7 50.1v-1.6c0 55.4-5.8 105.4-17.3 150l191.7-1.3c0 36.7 13.5 66.5 40.6 89.6 27 23.1 76.2 34.6 147.4 34.6 40.9 0 71.9-5.5 93-16.5s34.9-23.3 41.5-36.9c4-6.3 6.6-12.3 7.9-18.1 1.3-5.8 2-10.7 2-14.9 0-26.2-16.1-45-48.5-56.6-32.3-11.5-71.5-22-117.7-31.4-15.8-3.1-32.3-6.3-49.4-9.4-17.1-3.1-34.3-6.8-51.4-11-67.3-15.7-128.9-39.8-184.9-72.3-24-13.9-42.9-32-56.6-54.3M1992.9 724.8v119.6h2c2.7-3.1 5.5-6.7 8.2-10.9 2.7-4.1 6.1-8.3 10.2-12.4 21.8-29 51.4-55.7 88.9-80s90.9-36.5 160.4-36.5c98.1 0 184.2 35.2 258.5 105.6 41.8 39.7 71.9 90.9 90.1 153.6 21.5-60.9 55.5-110.4 101.7-148.5 86.5-71.3 186.2-107 299-107s212.5 35.6 299 107c46.1 38 79.8 87.2 101.4 147.7.3-3.8.7-7.5 1.1-11.3 1.3-11.5 3.3-23.1 5.9-34.6 13.2-52.4 45.5-100.6 96.9-144.6s132.5-66 243.3-66c11.9 0 23.8.3 35.6.8 11.9.5 24.4 1.3 37.6 2.4 75.2 6.3 144.4 28 207.7 65.2 63.3 37.2 98.9 106.6 106.8 208.3v-1.6h-221.5s-.3-.8-1-2.4c-.6-1.6-1-2.9-1-3.9-5.3-26.2-17.2-49.8-35.6-70.7-18.5-20.9-56.7-31.4-114.7-31.4-51.4 0-86.4 6.5-104.8 19.6-18.5 13.1-29 27.5-31.7 43.2-1.3 3.1-2 6.3-2 9.4v9.4c0 24.1 15.5 41.9 46.5 53.5 31 11.5 68.9 21.5 113.7 29.9 17.1 3.1 34.9 6.5 53.4 10.2s37.6 8.1 57.4 13.4c67.3 14.7 128.9 38.5 185 71.5 56 33 84.1 88.3 84.1 165.8 0 83.8-24.1 146.2-72.2 187-48.1 40.9-101.2 68.1-159.2 81.7-26.4 6.3-52.1 10.7-77.1 13.4-25 2.6-48.1 3.9-69.2 3.9h-18.8c-5.9 0-12.2-.5-18.8-1.6-93.6-3.1-179.3-25.4-257.1-66.8-55.8-29.7-92.3-75.7-109.4-138-20.7 40.5-48 74.8-82.1 102.6-86.5 70.8-186.2 106.2-299 106.2s-212.5-35.4-299-106.2c-51.7-42.3-88-98.9-108.8-169.8-14.4 43.5-34.2 85-59.5 124.5-58.6 91.1-154.6 136.7-288.1 136.7-55.8 0-100.8-7.8-134.9-23.3-34-15.5-59.9-33.1-77.6-52.8-9.5-9.3-17.4-18.1-23.5-26.4s-11.2-16-15.3-23.3l-2-1.6v405.3h-235V724.8h224.5zm3603.6 428.1c0-10.2-.3-21.3-.9-33.5s-2.1-24.3-4.5-36.5c-7.2-43.6-24.2-83.7-50.8-120.2-26.6-36.5-71.5-54.8-134.4-54.8-63 0-108.1 18.3-135.3 54.8-27.3 36.5-43.9 76.6-50 120.2-2.4 12.2-3.9 24.3-4.5 36.5s-.9 23.8-.9 35 .3 22.8.9 35 2.1 24.3 4.5 36.5c6.1 43.6 22.7 83.7 50 120.2 27.2 36.5 72.4 54.8 135.3 54.8 63 0 107.8-18.3 134.4-54.8s43.6-76.6 50.8-120.2c2.4-12.2 4-24.3 4.5-36.5.6-12.2.9-23.8.9-35v-1.5zm214.4 0c0 147-40.9 254.8-122.6 323.2-81.8 68.5-175.9 102.7-282.5 102.7s-200.7-34.2-282.5-102.7-122.6-175.7-122.6-321.7 40.9-253.5 122.6-322.5 175.9-103.5 282.5-103.5 200.7 34.5 282.5 103.5 122.6 176.5 122.6 322.5v-1.5zm1197.8-402.2L6757.8 1560h-235l-135.4-590.2h-4L6248 1560h-235l-244.9-809.3h243l135.4 581.1h4L6274 750.7h229l131.4 581.1h2l137.4-581.1h234.9zm-2039.6 251v559.8h-214.4v-491.3c0-7.1-.3-15.7-.9-25.9-.6-10.1-1.6-20.8-2.8-31.9-5-24.3-16.8-47.1-35.4-68.5-18.7-21.3-52.2-31.9-100.7-31.9-47.2 0-87 15.7-119.3 47.2-32.3 31.4-48.5 78.1-48.5 139.9v462.5h-214.3V752.2h205v118.7h3.7c5-7.1 10.6-15.2 16.8-24.3 6.2-9.1 13.7-18.8 22.4-28.9 18.7-21.3 44.4-40.8 77.4-58.6 32.9-17.8 75.5-26.6 127.7-26.6 79.5 0 146.6 22.8 201.3 68.5 54.7 45.7 82 113.1 82 202.3v-1.6z" fill="#fff"/><path d="M1084.4 798.9c43.2-1.9 84.2 4.2 121.4 16.9l-401 367.9c-15.8-31.6-24.5-66.8-24.5-104.2 0-147.6 136.2-273.3 304.1-280.6m19-188.8c159.4 0 301.5 71.9 394.5 184.3l-595.5 545.4c146.9 135.2 502.9 100.7 531.3-312.8l169.3-7.4c5 28.1 7.7 57 7.7 86.5 0 273.9-227.2 496-507.3 496s-507.2-222.1-507.2-496c-.1-273.9 227.1-496 507.2-496" fill-rule="evenodd" clip-rule="evenodd" fill="#142038"/></svg>