<?xml version="1.0" encoding="utf-8"?>
<!-- Generator: Adobe Illustrator 15.0.0, SVG Export Plug-In . SVG Version: 6.00 Build 0)  -->
<!DOCTYPE svg PUBLIC "-//W3C//DTD SVG 1.1//EN" "http://www.w3.org/Graphics/SVG/1.1/DTD/svg11.dtd" [
	<!ENTITY ns_flows "http://ns.adobe.com/Flows/1.0/">
	<!ENTITY ns_extend "http://ns.adobe.com/Extensibility/1.0/">
	<!ENTITY ns_ai "http://ns.adobe.com/AdobeIllustrator/10.0/">
	<!ENTITY ns_graphs "http://ns.adobe.com/Graphs/1.0/">
]>
<svg version="1.1" id="Layer_1" xmlns:x="&ns_extend;" xmlns:i="&ns_ai;" xmlns:graph="&ns_graphs;"
	 xmlns="http://www.w3.org/2000/svg" xmlns:xlink="http://www.w3.org/1999/xlink" xmlns:a="http://ns.adobe.com/AdobeSVGViewerExtensions/3.0/"
	 x="0px" y="0px" width="2268.213px" height="480px" viewBox="0 0 2268.213 480" enable-background="new 0 0 2268.213 480"
	 xml:space="preserve">
<g>
	<path fill="#231F20" d="M-2555.721-822.428h81.1h81.1c47.769,0,83.596,9.382,107.481,28.145
		c23.886,18.758,35.829,46.902,35.829,84.422c0,36.98-14.091,64.711-42.273,83.201c-28.183,18.484-70.456,27.73-126.821,27.73
		h-47.37h-47.37v88.854v88.854h-20.837h-20.838v-200.604V-822.428z M-2514.046-789.993v79.313v79.314h48.569h48.569
		c24.185,0,44.497-1.656,60.937-4.971c16.44-3.32,29.008-8.291,37.702-14.926c8.793-6.721,15.389-15.24,19.786-25.549
		c4.398-10.314,6.598-22.422,6.598-36.321c0-25.62-9.77-44.836-29.308-57.646c-19.539-12.811-48.846-19.216-87.919-19.216h-52.468
		H-2514.046z"/>
	<path fill="#231F20" d="M-2210.396-620.189c0-32.615,4.672-61.85,14.015-87.693c9.345-25.85,23.361-48.313,42.05-67.393
		c18.687-19.166,40.349-33.546,64.983-43.129c24.635-9.589,52.244-14.381,82.824-14.381c32.279,0,61.086,4.748,86.42,14.244
		c25.335,9.49,47.196,23.734,65.586,42.721c18.387,18.992,32.178,41.456,41.373,67.393c9.194,25.938,13.792,55.352,13.792,88.238
		c0,31.07-4.598,59.209-13.792,84.422c-9.195,25.211-22.986,47.496-41.373,66.848c-18.39,19.352-40.126,33.861-65.209,43.537
		c-25.085,9.676-53.518,14.518-85.297,14.518c-32.182,0-60.864-4.863-86.048-14.582c-25.185-9.721-46.87-24.301-65.059-43.746
		c-18.089-19.531-31.655-41.881-40.7-67.049C-2205.874-561.41-2210.396-589.391-2210.396-620.189z M-2168.722-620.463
		c0,27.529,3.673,52.125,11.018,73.793c7.346,21.668,18.364,40.408,33.055,56.217c14.691,15.721,32.029,27.508,52.018,35.367
		c19.986,7.855,42.623,11.785,67.908,11.785c25.083,0,47.569-3.93,67.458-11.785c19.887-7.859,37.177-19.646,51.867-35.367
		c14.789-15.809,25.882-34.658,33.278-56.555c7.396-21.893,11.094-46.832,11.094-74.818c0-28.346-3.647-53.49-10.943-75.432
		s-18.239-40.677-32.829-56.213c-14.492-15.623-31.856-27.343-52.094-35.16c-20.237-7.811-43.348-11.719-69.33-11.719
		c-25.185,0-47.696,4.088-67.535,12.264c-19.838,8.178-37.002,20.442-51.491,36.796c-14.492,16.267-25.36,35.296-32.605,57.101
		S-2168.722-647.805-2168.722-620.463z"/>
	<path fill="#231F20" d="M-1711.566-541.693c0.899,14.811,4.222,28.166,9.967,40.066c5.747,11.898,13.917,22.35,24.512,31.344
		c10.692,8.994,23.684,15.738,38.974,20.234c15.291,4.498,32.88,6.748,52.769,6.748c16.988,0,32.304-1.771,45.945-5.314
		s25.609-8.857,35.904-15.945c10.393-7.086,18.188-15.578,23.385-25.482c5.196-9.9,7.795-21.211,7.795-33.934
		c0-8.811-1.549-16.943-4.646-24.395c-3.1-7.445-7.746-14.217-13.941-20.305c-6.198-6.178-14.169-11.721-23.913-16.627
		s-21.261-9.174-34.551-12.811l-50.219-12.945l-50.219-12.947c-30.881-8.355-54.041-20.895-69.481-37.613
		s-23.16-37.613-23.16-62.688c0-15.809,3.472-30.211,10.417-43.201c6.946-12.989,17.364-24.573,31.257-34.75
		c13.99-10.172,30.004-17.804,48.044-22.895c18.037-5.086,38.101-7.633,60.188-7.633c23.184,0,43.82,2.748,61.908,8.248
		c18.09,5.494,33.631,13.742,46.624,24.732c12.99,10.994,22.734,23.919,29.231,38.773c6.495,14.854,9.744,31.639,9.744,50.352
		h-20.237h-20.237c0-14.172-2.398-26.754-7.195-37.748c-4.797-10.99-11.992-20.393-21.587-28.21
		c-9.594-7.904-20.888-13.835-33.879-17.787c-12.992-3.952-27.684-5.925-44.072-5.925c-15.89,0-30.356,1.656-43.397,4.977
		c-13.042,3.314-24.66,8.291-34.854,14.92c-10.096,6.633-17.666,14.767-22.713,24.394c-5.046,9.632-7.568,20.763-7.568,33.388
		c0,17.264,7.02,31.867,21.061,43.816s35.103,21.238,63.187,27.867l33.279,8.039l33.279,8.041
		c19.687,4.547,36.951,10.178,51.792,16.898c14.84,6.727,27.258,14.539,37.253,23.439c10.093,8.814,17.664,18.785,22.709,29.916
		c5.048,11.133,7.572,23.418,7.572,36.861c0,18.174-3.497,34.414-10.494,48.723c-6.996,14.309-17.489,26.689-31.48,37.133
		c-13.892,10.357-30.731,18.125-50.52,23.305c-19.788,5.178-42.522,7.768-68.206,7.768c-24.786,0-46.973-2.906-66.56-8.723
		c-19.588-5.811-36.576-14.533-50.967-26.166c-14.392-11.627-25.185-25.434-32.38-41.428c-7.195-15.988-10.794-34.156-10.794-54.512
		h20.237H-1711.566z"/>
	<path fill="#3DB54A" d="M-1387.616-709.246h16.188h16.187v24.279v24.281h0.84h0.84c9.207-17.303,21.347-31.535,36.909-41.445
		c15.558-9.905,34.539-15.487,57.42-15.487c18.976,0,36.98,4.606,51.563,13.954c14.582,9.35,25.745,23.441,31.05,42.422
		c8.65-18.98,22.044-33.072,38.024-42.422c15.979-9.348,34.538-13.954,53.517-13.954c31.54,0,55.4,8.231,71.38,24.978
		c15.98,16.746,24.072,42,24.072,76.055v97.678v97.686h-17.583h-17.585v-96.846v-96.846c0-23.723-4.465-42.006-15.209-54.352
		c-10.744-12.354-27.768-18.77-52.887-18.77c-30.423,0-49.96,12.561-61.893,31.818c-11.933,19.254-16.255,45.213-16.255,72.004
		v81.496v81.494h-17.586h-17.58v-97.686v-97.678c0.278-19.537-3.63-37.4-13.186-50.381c-9.562-12.973-24.771-21.068-47.099-21.068
		c-30.42,0-51.771,11.441-65.585,30.418c-13.813,18.98-20.093,45.494-20.377,75.635v80.383v80.377h-17.582h-17.583v-144.014
		V-709.246z"/>
	<path fill="#3DB54A" d="M-925.994-621.057c1.68-33.77,14.375-57.908,34.888-73.607c20.518-15.699,48.842-22.954,81.778-22.954
		c25.396,0,51.911,3.908,72.074,17.444c20.164,13.535,33.978,36.697,33.978,75.215v76.469v76.473c0,6.701,1.674,11.998,5.097,15.629
		c3.418,3.625,8.583,5.582,15.561,5.582c1.948,0,4.042-0.277,5.999-0.697c1.951-0.42,3.77-0.977,5.165-1.537v14.795v14.793
		c-3.911,0.834-7.259,1.396-10.815,1.74c-3.563,0.348-7.326,0.49-12.071,0.49c-17.863,0-28.193-5.025-34.054-13.814
		c-5.857-8.791-7.253-21.352-7.253-36.424h-0.559h-0.562c-12.275,18.703-24.696,33.35-40.954,43.332
		c-16.256,9.975-36.354,15.279-63.98,15.279c-26.514,0-50.657-6.559-68.172-20.377c-17.509-13.813-28.395-34.881-28.395-63.908
		c0-40.471,19.673-61.402,48.842-73.336c29.164-11.932,67.817-14.859,105.774-19.324c14.514-1.674,25.816-3.488,33.491-8.863
		c7.676-5.369,11.723-14.303,11.723-30.209c0-23.725-8.512-38.52-22.188-47.377c-13.677-8.863-32.517-11.791-53.168-11.791
		c-21.769,0-40.75,5.021-54.421,15.906c-13.678,10.887-14.609,19.711-21.358,48.32c-0.687,2.916-13.251,2.752-13.251,2.752H-925.994
		z M-738.439-578.631h-0.559h-0.562c-2.229,4.188-7.253,6.979-12.908,8.93c-5.647,1.957-11.927,3.068-16.672,3.908
		c-29.864,5.305-63.356,7.816-89.38,16.049c-26.023,8.23-44.585,22.186-44.585,50.373c0,17.586,7.812,31.818,19.744,41.658
		c11.933,9.834,27.98,15.279,44.448,15.279c26.793,0,52.048-8.514,70.538-24.072c18.49-15.557,30.216-38.164,29.935-66.357v-22.883
		V-578.631z"/>
	<path fill="#3DB54A" d="M-486.697-709.201c-31.753-0.072-49.676,4.186-69.142,15.557c-19.467,11.371-34.678,28.814-43.609,51.982
		h-0.562h-0.557v-33.77v-33.77h-16.189h-16.185v144.008v144.014h17.58h17.585v-76.752v-76.746c0-29.867,11.862-56.938,31.68-76.125
		c19.813-19.189,40.753-29.295,79.088-28.859h3.102h12.56h9.769h12.56h12.56v49.256v49.264v49.262v49.256
		c-0.142,12.281,0.763,22.471,2.938,30.844c2.17,8.371,5.604,14.93,10.526,19.955c4.917,5.021,11.322,8.51,19.423,10.744
		c8.105,2.236,17.907,3.211,29.627,3.211c2.654,0,5.271-0.07,7.869-0.174c2.597-0.104,5.181-0.246,7.76-0.387
		c2.583-0.137,5.162-0.279,7.762-0.383c2.601-0.104,5.217-0.174,7.866-0.174v-7.539v-7.533v-7.539v-7.533
		c-2.508,0.277-5.021,0.523-7.533,0.73c-2.514,0.213-5.021,0.387-7.534,0.523c-2.513,0.141-5.025,0.244-7.539,0.316
		c-2.513,0.07-5.02,0.104-7.533,0.104c-6.279-0.414-11.202-1.57-15.045-3.418c-3.849-1.848-6.617-4.395-8.607-7.605
		c-1.99-3.209-3.194-7.08-3.897-11.582c-0.709-4.498-0.916-9.627-0.916-15.352v-48.559v-48.564v-48.564v-48.559h14.653h14.652h9.07
		c0,0,14.124,0.535,17.356-1.832c3.489-2.557,2.873-11.146,2.873-11.146v-1.816v-7.391v-7.398h-14.647h-14.652h-14.652h-14.653
		v-21.629v-21.631v-21.63v-21.63h-8.792h-8.793h-8.787h-8.793v21.63v21.63v21.631v21.629h-12.56h-12.56h-12.56"/>
	<path fill="#231F20" d="M-2563.906-340.105h54.593c47.521,1.004,72.496,24.719,72.496,71.746s-24.976,70.74-72.496,71.746h-54.593
		V-340.105z M-2548.878-208.271h32.049c45.312,0.201,64.983-17.283,64.983-60.088c0-42.809-19.672-60.289-64.983-60.09h-32.049
		V-208.271z"/>
	<path fill="#231F20" d="M-2420.448-340.105h13.925v20.299h-13.925V-340.105z M-2420.448-300.314h13.925v103.701h-13.925V-300.314z"
		/>
	<path fill="#231F20" d="M-2288.936-205.055c-0.221,30.949-13.262,49.84-50.615,49.84c-22.766,0-45.311-9.242-47.3-31.35h13.925
		c3.094,15.273,17.903,20.697,33.375,20.697c25.64,0,36.69-13.865,36.69-39.188v-14.066h-0.441
		c-6.411,12.66-19.893,21.303-36.249,21.303c-36.47,0-51.5-23.715-51.5-53.258c0-28.537,18.566-52.252,51.5-52.252
		c16.577,0,30.723,9.447,36.249,20.9h0.441v-17.887h13.925V-205.055z M-2302.86-249.67c0-20.297-10.389-43.008-36.69-43.008
		c-26.522,0-37.575,21.506-37.575,43.008c0,20.9,11.936,41.199,37.575,41.199C-2315.46-208.471-2302.86-228.568-2302.86-249.67z"/>
	<path fill="#231F20" d="M-2267.706-340.105h13.925v20.299h-13.925V-340.105z M-2267.706-300.314h13.925v103.701h-13.925V-300.314z"
		/>
	<path fill="#231F20" d="M-2210.458-300.314h23.208v10.652h-23.208v69.938c0,8.24,1.326,13.061,11.272,13.664
		c3.979,0,7.956-0.199,11.936-0.604v10.854c-4.2,0-8.178,0.4-12.378,0.4c-18.566,0-24.976-5.625-24.755-23.311v-70.941h-19.893
		v-10.652h19.893v-31.15h13.925V-300.314z"/>
	<path fill="#231F20" d="M-2173.986-268.561c1.326-24.318,20.113-34.768,46.194-34.768c20.113,0,41.996,5.629,41.996,33.361v55.064
		c0,4.824,2.651,7.637,8.178,7.637c1.547,0,3.315-0.4,4.421-0.805v10.652c-3.095,0.602-5.306,0.805-9.063,0.805
		c-14.146,0-16.356-7.234-16.356-18.088h-0.441c-9.726,13.465-19.672,21.102-41.554,21.102c-20.997,0-38.237-9.447-38.237-30.346
		c0-29.141,31.164-30.146,61.225-33.361c11.493-1.205,17.903-2.611,17.903-14.066c0-17.084-13.482-21.305-29.839-21.305
		c-17.24,0-30.061,7.234-30.502,24.117H-2173.986z M-2099.721-253.287h-0.442c-1.769,3.016-7.957,4.021-11.714,4.623
		c-23.65,3.818-53.047,3.617-53.047,23.914c0,12.66,12.377,20.498,25.417,20.498c21.219,0,40.007-12.258,39.786-32.557V-253.287z"/>
	<path fill="#231F20" d="M-2063.243-340.105h13.925v143.492h-13.925V-340.105z"/>
	<path fill="#231F20" d="M-1969.962-340.105h22.103l54.594,125.805l54.372-125.805h22.104v143.492h-15.03v-123.998h-0.441
		l-53.932,123.998h-14.146l-54.151-123.998h-0.441v123.998h-15.03V-340.105z"/>
	<path fill="#231F20" d="M-1785.391-245.047c0.221,18.49,10.83,40.795,37.575,40.795c20.334,0,31.386-10.852,35.806-26.527h13.925
		c-5.968,23.514-20.998,37.18-49.73,37.18c-36.249,0-51.5-25.322-51.5-54.863c0-27.332,15.251-54.865,51.5-54.865
		c36.69,0,51.278,29.143,50.174,58.281H-1785.391z M-1711.566-255.699c-0.664-19.092-13.705-36.979-36.249-36.979
		c-22.766,0-35.364,18.088-37.575,36.979H-1711.566z"/>
	<path fill="#231F20" d="M-1684.372-300.314h12.819v24.318h0.443c7.072-16.682,22.544-26.527,43.099-25.725v12.66
		c-25.196-1.205-42.437,15.676-42.437,37.18v55.268h-13.925V-300.314z"/>
	<path fill="#231F20" d="M-1543.793-267.758c-3.759-15.475-14.146-24.92-32.271-24.92c-26.745,0-40.006,22.107-40.006,44.215
		c0,22.105,13.261,44.211,40.006,44.211c17.24,0,31.386-12.258,33.153-29.541h13.926c-3.758,24.92-21.66,40.193-47.079,40.193
		c-34.923,0-53.931-25.121-53.931-54.863c0-29.744,19.008-54.865,53.931-54.865c24.313,0,43.101,11.855,46.194,35.57H-1543.793z"/>
	<path fill="#231F20" d="M-1515.272-340.105h13.925v57.678h0.441c5.085-12.459,20.336-20.9,36.47-20.9
		c32.048,0,41.775,15.273,41.775,39.992v66.723h-13.925v-64.711c0-17.889-6.411-31.354-28.956-31.354
		c-22.102,0-35.364,15.275-35.806,35.572v60.492h-13.925V-340.105z"/>
	<path fill="#231F20" d="M-1403.203-268.561c1.324-24.318,20.111-34.768,46.192-34.768c20.115,0,41.996,5.629,41.996,33.361v55.064
		c0,4.824,2.651,7.637,8.177,7.637c1.548,0,3.316-0.4,4.423-0.805v10.652c-3.096,0.602-5.307,0.805-9.063,0.805
		c-14.148,0-16.358-7.234-16.358-18.088h-0.441c-9.725,13.465-19.671,21.102-41.552,21.102c-20.998,0-38.237-9.447-38.237-30.346
		c0-29.141,31.164-30.146,61.223-33.361c11.496-1.205,17.904-2.611,17.904-14.066c0-17.084-13.484-21.305-29.84-21.305
		c-17.239,0-30.061,7.234-30.502,24.117H-1403.203z M-1328.939-253.287h-0.442c-1.769,3.016-7.956,4.021-11.714,4.623
		c-23.65,3.818-53.048,3.617-53.048,23.914c0,12.66,12.379,20.498,25.419,20.498c21.218,0,40.006-12.258,39.785-32.557V-253.287z"/>
	<path fill="#231F20" d="M-1292.902-300.314h13.922v17.887h0.441c5.089-12.459,20.339-20.9,36.469-20.9
		c32.05,0,41.78,15.273,41.78,39.992v66.723h-13.928v-64.711c0-17.889-6.411-31.354-28.956-31.354
		c-22.1,0-35.365,15.275-35.807,35.572v60.492h-13.922V-300.314z"/>
	<path fill="#231F20" d="M-1157.408-300.314h23.208v10.652h-23.208v69.938c0,8.24,1.324,13.061,11.275,13.664
		c3.979,0,7.953-0.199,11.933-0.604v10.854c-4.197,0-8.177,0.4-12.374,0.4c-18.569,0-24.978-5.625-24.76-23.311v-70.941h-19.894
		v-10.652h19.894v-31.15h13.926V-300.314z"/>
	<path fill="#231F20" d="M-1053.96-243.842c-0.662,29.541,22.77,38.586,51.503,38.586c16.577,0,41.771-8.24,41.771-29.141
		c0-16.279-17.901-22.709-32.488-25.926l-35.144-7.836c-18.569-4.221-35.585-12.26-35.585-34.568
		c0-14.066,9.942-40.393,54.367-40.393c31.167,0,58.575,15.271,58.354,44.615h-15.032c-0.886-21.906-20.773-32.961-43.1-32.961
		c-20.553,0-39.563,7.236-39.563,28.539c0,13.465,11.049,19.09,23.873,21.906l38.458,8.641
		c22.322,5.426,40.889,14.268,40.889,37.781c0,9.848-4.418,40.998-60.342,40.998c-37.354,0-64.757-15.273-62.99-50.242H-1053.96z"/>
	<path fill="#231F20" d="M-921.774-245.047c0.218,18.49,10.831,40.795,37.574,40.795c20.33,0,31.388-10.852,35.804-26.527h13.928
		c-5.97,23.514-20.998,37.18-49.731,37.18c-36.25,0-51.502-25.322-51.502-54.863c0-27.332,15.252-54.865,51.502-54.865
		c36.692,0,51.276,29.143,50.173,58.281H-921.774z M-847.95-255.699c-0.665-19.092-13.706-36.979-36.25-36.979
		c-22.767,0-35.367,18.088-37.574,36.979H-847.95z"/>
	<path fill="#231F20" d="M-820.754-300.314h12.815v24.318h0.441c7.076-16.682,22.546-26.527,43.103-25.725v12.66
		c-25.198-1.205-42.438,15.676-42.438,37.18v55.268h-13.922V-300.314z"/>
	<path fill="#231F20" d="M-769.476-300.314h15.471l35.809,91.041h0.441l35.362-91.041h14.369l-42.661,103.701h-14.808
		L-769.476-300.314z"/>
	<path fill="#231F20" d="M-659.618-340.105h13.925v20.299h-13.925V-340.105z M-659.618-300.314h13.925v103.701h-13.925V-300.314z"/>
	<path fill="#231F20" d="M-544.016-267.758c-3.762-15.475-14.146-24.92-32.271-24.92c-26.744,0-40.009,22.107-40.009,44.215
		c0,22.105,13.265,44.211,40.009,44.211c17.239,0,31.388-12.258,33.15-29.541h13.925c-3.756,24.92-21.657,40.193-47.075,40.193
		c-34.926,0-53.935-25.121-53.935-54.863c0-29.744,19.009-54.865,53.935-54.865c24.31,0,43.102,11.855,46.192,35.57H-544.016z"/>
	<path fill="#231F20" d="M-507.098-245.047c0.221,18.49,10.828,40.795,37.574,40.795c20.336,0,31.385-10.852,35.804-26.527h13.931
		c-5.97,23.514-21.001,37.18-49.734,37.18c-36.25,0-51.499-25.322-51.499-54.863c0-27.332,15.249-54.865,51.499-54.865
		c36.689,0,51.282,29.143,50.176,58.281H-507.098z M-433.275-255.699c-0.662-19.092-13.705-36.979-36.248-36.979
		c-22.767,0-35.367,18.088-37.574,36.979H-433.275z"/>
	<path fill="#231F20" d="M-337.782-269.967c-0.66-15.676-13.923-22.711-29.84-22.711c-12.374,0-26.964,4.422-26.964,17.887
		c0,11.254,14.148,15.273,23.649,17.484l18.563,3.818c15.915,2.211,32.492,10.65,32.492,28.738c0,22.508-24.53,31.15-45.752,31.15
		c-26.522,0-44.645-11.254-46.857-36.576h13.925c1.106,17.082,15.031,25.924,33.599,25.924c13.036,0,31.164-5.225,31.164-19.693
		c0-12.059-12.38-16.078-24.978-18.893l-17.901-3.615c-18.125-4.422-31.83-10.051-31.83-27.732
		c0-21.105,22.765-29.143,42.879-29.143c22.77,0,40.89,10.854,41.775,33.361H-337.782z"/>
</g>
<g>
	<path fill="#231F20" d="M-2555.721,37.572h81.1h81.1c47.769,0,83.596,9.382,107.481,28.145
		c23.886,18.758,35.829,46.902,35.829,84.422c0,36.98-14.091,64.711-42.273,83.201c-28.183,18.484-70.456,27.73-126.821,27.73
		h-47.37h-47.37v88.854v88.854h-20.837h-20.838V238.174V37.572z M-2514.046,70.007v79.313v79.314h48.569h48.569
		c24.185,0,44.497-1.656,60.937-4.971c16.44-3.32,29.008-8.291,37.702-14.926c8.793-6.721,15.389-15.24,19.786-25.549
		c4.398-10.314,6.598-22.422,6.598-36.321c0-25.62-9.77-44.836-29.308-57.646c-19.539-12.811-48.846-19.216-87.919-19.216h-52.468
		H-2514.046z"/>
	<path fill="#231F20" d="M-2210.396,239.811c0-32.615,4.672-61.85,14.015-87.693c9.345-25.85,23.361-48.313,42.05-67.393
		c18.687-19.166,40.349-33.546,64.983-43.129c24.635-9.589,52.244-14.381,82.824-14.381c32.279,0,61.086,4.748,86.42,14.244
		c25.335,9.49,47.196,23.734,65.586,42.721c18.387,18.992,32.178,41.456,41.373,67.393c9.194,25.938,13.792,55.352,13.792,88.238
		c0,31.07-4.598,59.209-13.792,84.422c-9.195,25.211-22.986,47.496-41.373,66.848c-18.39,19.352-40.126,33.861-65.209,43.537
		c-25.085,9.676-53.518,14.518-85.297,14.518c-32.182,0-60.864-4.863-86.048-14.582c-25.185-9.721-46.87-24.301-65.059-43.746
		c-18.089-19.531-31.655-41.881-40.7-67.049C-2205.874,298.59-2210.396,270.609-2210.396,239.811z M-2168.722,239.537
		c0,27.529,3.673,52.125,11.018,73.793c7.346,21.668,18.364,40.408,33.055,56.217c14.691,15.721,32.029,27.508,52.018,35.367
		c19.986,7.855,42.623,11.785,67.908,11.785c25.083,0,47.569-3.93,67.458-11.785c19.887-7.859,37.177-19.646,51.867-35.367
		c14.789-15.809,25.882-34.658,33.278-56.555c7.396-21.893,11.094-46.832,11.094-74.818c0-28.346-3.647-53.49-10.943-75.432
		s-18.239-40.677-32.829-56.213c-14.492-15.623-31.856-27.343-52.094-35.16c-20.237-7.811-43.348-11.719-69.33-11.719
		c-25.185,0-47.696,4.088-67.535,12.264c-19.838,8.178-37.002,20.442-51.491,36.796c-14.492,16.267-25.36,35.296-32.605,57.101
		S-2168.722,212.195-2168.722,239.537z"/>
	<path fill="#231F20" d="M-1711.566,318.307c0.899,14.811,4.222,28.166,9.967,40.066c5.747,11.898,13.917,22.35,24.512,31.344
		c10.692,8.994,23.684,15.738,38.974,20.234c15.291,4.498,32.88,6.748,52.769,6.748c16.988,0,32.304-1.771,45.945-5.314
		s25.609-8.857,35.904-15.945c10.393-7.086,18.188-15.578,23.385-25.482c5.196-9.9,7.795-21.211,7.795-33.934
		c0-8.811-1.549-16.943-4.646-24.395c-3.1-7.445-7.746-14.217-13.941-20.305c-6.198-6.178-14.169-11.721-23.913-16.627
		s-21.261-9.174-34.551-12.811l-50.219-12.945l-50.219-12.947c-30.881-8.355-54.041-20.895-69.481-37.613
		s-23.16-37.613-23.16-62.688c0-15.809,3.472-30.211,10.417-43.201c6.946-12.989,17.364-24.573,31.257-34.75
		c13.99-10.172,30.004-17.804,48.044-22.895c18.037-5.086,38.101-7.633,60.188-7.633c23.184,0,43.82,2.748,61.908,8.248
		c18.09,5.494,33.631,13.742,46.624,24.732c12.99,10.994,22.734,23.919,29.231,38.773c6.495,14.854,9.744,31.639,9.744,50.352
		h-20.237h-20.237c0-14.172-2.398-26.754-7.195-37.748c-4.797-10.99-11.992-20.393-21.587-28.21
		c-9.594-7.904-20.888-13.835-33.879-17.787c-12.992-3.952-27.684-5.925-44.072-5.925c-15.89,0-30.356,1.656-43.397,4.977
		c-13.042,3.314-24.66,8.291-34.854,14.92c-10.096,6.633-17.666,14.767-22.713,24.394c-5.046,9.632-7.568,20.763-7.568,33.388
		c0,17.264,7.02,31.867,21.061,43.816s35.103,21.238,63.187,27.867l33.279,8.039l33.279,8.041
		c19.687,4.547,36.951,10.178,51.792,16.898c14.84,6.727,27.258,14.539,37.253,23.439c10.093,8.814,17.664,18.785,22.709,29.916
		c5.048,11.133,7.572,23.418,7.572,36.861c0,18.174-3.497,34.414-10.494,48.723c-6.996,14.309-17.489,26.689-31.48,37.133
		c-13.892,10.357-30.731,18.125-50.52,23.305c-19.788,5.178-42.522,7.768-68.206,7.768c-24.786,0-46.973-2.906-66.56-8.723
		c-19.588-5.811-36.576-14.533-50.967-26.166c-14.392-11.627-25.185-25.434-32.38-41.428c-7.195-15.988-10.794-34.156-10.794-54.512
		h20.237H-1711.566z"/>
	<path fill="#3DB54A" d="M-1387.616,150.754h16.188h16.187v24.279v24.281h0.84h0.84c9.207-17.303,21.347-31.535,36.909-41.445
		c15.558-9.905,34.539-15.487,57.42-15.487c18.976,0,36.98,4.606,51.563,13.954c14.582,9.35,25.745,23.441,31.05,42.422
		c8.65-18.98,22.044-33.072,38.024-42.422c15.979-9.348,34.538-13.954,53.517-13.954c31.54,0,55.4,8.231,71.38,24.978
		c15.98,16.746,24.072,42,24.072,76.055v97.678v97.686h-17.583h-17.585v-96.846v-96.846c0-23.723-4.465-42.006-15.209-54.352
		c-10.744-12.354-27.768-18.77-52.887-18.77c-30.423,0-49.96,12.561-61.893,31.818c-11.933,19.254-16.255,45.213-16.255,72.004
		v81.496v81.494h-17.586h-17.58v-97.686v-97.678c0.278-19.537-3.63-37.4-13.186-50.381c-9.562-12.973-24.771-21.068-47.099-21.068
		c-30.42,0-51.771,11.441-65.585,30.418c-13.813,18.98-20.093,45.494-20.377,75.635V358.4v80.377h-17.582h-17.583V294.764V150.754z"
		/>
	<path fill="#3DB54A" d="M-925.994,238.943c1.68-33.77,14.375-57.908,34.888-73.607c20.518-15.699,48.842-22.954,81.778-22.954
		c25.396,0,51.911,3.908,72.074,17.444c20.164,13.535,33.978,36.697,33.978,75.215v76.469v76.473c0,6.701,1.674,11.998,5.097,15.629
		c3.418,3.625,8.583,5.582,15.561,5.582c1.948,0,4.042-0.277,5.999-0.697c1.951-0.42,3.77-0.977,5.165-1.537v14.795v14.793
		c-3.911,0.834-7.259,1.396-10.815,1.74c-3.563,0.348-7.326,0.49-12.071,0.49c-17.863,0-28.193-5.025-34.054-13.814
		c-5.857-8.791-7.253-21.352-7.253-36.424h-0.559h-0.562c-12.275,18.703-24.696,33.35-40.954,43.332
		c-16.256,9.975-36.354,15.279-63.98,15.279c-26.514,0-50.657-6.559-68.172-20.377c-17.509-13.813-28.395-34.881-28.395-63.908
		c0-40.471,19.673-61.402,48.842-73.336c29.164-11.932,67.817-14.859,105.774-19.324c14.514-1.674,25.816-3.488,33.491-8.863
		c7.676-5.369,11.723-14.303,11.723-30.209c0-23.725-8.512-38.52-22.188-47.377c-13.677-8.863-32.517-11.791-53.168-11.791
		c-21.769,0-40.75,5.021-54.421,15.906c-13.678,10.887-14.609,19.711-21.358,48.32c-0.687,2.916-13.251,2.752-13.251,2.752H-925.994
		z M-738.439,281.369h-0.559h-0.562c-2.229,4.188-7.253,6.979-12.908,8.93c-5.647,1.957-11.927,3.068-16.672,3.908
		c-29.864,5.305-63.356,7.816-89.38,16.049c-26.023,8.23-44.585,22.186-44.585,50.373c0,17.586,7.812,31.818,19.744,41.658
		c11.933,9.834,27.98,15.279,44.448,15.279c26.793,0,52.048-8.514,70.538-24.072c18.49-15.557,30.216-38.164,29.935-66.357v-22.883
		V281.369z"/>
	<path fill="#3DB54A" d="M-486.697,150.799c-31.753-0.072-49.676,4.186-69.142,15.557c-19.467,11.371-34.678,28.814-43.609,51.982
		h-0.562h-0.557v-33.77v-33.77h-16.189h-16.185v144.008V438.82h17.58h17.585v-76.752v-76.746c0-29.867,11.862-56.938,31.68-76.125
		c19.813-19.189,40.753-29.295,79.088-28.859h3.102h12.56h9.769h12.56h12.56v49.256v49.264v49.262v49.256
		c-0.142,12.281,0.763,22.471,2.938,30.844c2.17,8.371,5.604,14.93,10.526,19.955c4.917,5.021,11.322,8.51,19.423,10.744
		c8.105,2.236,17.907,3.211,29.627,3.211c2.654,0,5.271-0.07,7.869-0.174c2.597-0.104,5.181-0.246,7.76-0.387
		c2.583-0.137,5.162-0.279,7.762-0.383c2.601-0.104,5.217-0.174,7.866-0.174v-7.539v-7.533V418.4v-7.533
		c-2.508,0.277-5.021,0.523-7.533,0.73c-2.514,0.213-5.021,0.387-7.534,0.523c-2.513,0.141-5.025,0.244-7.539,0.316
		c-2.513,0.07-5.02,0.104-7.533,0.104c-6.279-0.414-11.202-1.57-15.045-3.418c-3.849-1.848-6.617-4.395-8.607-7.605
		c-1.99-3.209-3.194-7.08-3.897-11.582c-0.709-4.498-0.916-9.627-0.916-15.352v-48.559v-48.564v-48.564v-48.559h14.653h14.652h9.07
		c0,0,14.124,0.535,17.356-1.832c3.489-2.557,2.873-11.146,2.873-11.146v-1.816v-7.391v-7.398h-14.647h-14.652h-14.652h-14.653
		v-21.629v-21.631v-21.63v-21.63h-8.792h-8.793h-8.787h-8.793v21.63v21.63v21.631v21.629h-12.56h-12.56h-12.56"/>
</g>
<g>
	<path fill="#FFFFFF" d="M20.279-822.428h81.1h81.1c47.769,0,83.596,9.382,107.481,28.145
		c23.886,18.758,35.829,46.902,35.829,84.422c0,36.98-14.091,64.711-42.273,83.201c-28.183,18.484-70.456,27.73-126.821,27.73
		h-47.37h-47.37v88.854v88.854H41.117H20.279v-200.604V-822.428z M61.954-789.993v79.313v79.314h48.569h48.569
		c24.185,0,44.497-1.656,60.937-4.971c16.44-3.32,29.008-8.291,37.702-14.926c8.793-6.721,15.389-15.24,19.786-25.549
		c4.398-10.314,6.598-22.422,6.598-36.321c0-25.62-9.77-44.836-29.308-57.646c-19.539-12.811-48.846-19.216-87.919-19.216h-52.468
		H61.954z"/>
	<path fill="#FFFFFF" d="M365.604-620.189c0-32.615,4.672-61.85,14.015-87.693c9.345-25.85,23.361-48.313,42.05-67.393
		c18.687-19.166,40.349-33.546,64.983-43.129c24.635-9.589,52.244-14.381,82.824-14.381c32.279,0,61.086,4.748,86.42,14.244
		c25.335,9.49,47.196,23.734,65.586,42.721c18.387,18.992,32.178,41.456,41.373,67.393c9.194,25.938,13.792,55.352,13.792,88.238
		c0,31.07-4.598,59.209-13.792,84.422c-9.195,25.211-22.986,47.496-41.373,66.848c-18.39,19.352-40.126,33.861-65.209,43.537
		c-25.085,9.676-53.518,14.518-85.297,14.518c-32.182,0-60.864-4.863-86.048-14.582c-25.185-9.721-46.87-24.301-65.059-43.746
		c-18.089-19.531-31.655-41.881-40.7-67.049C370.126-561.41,365.604-589.391,365.604-620.189z M407.278-620.463
		c0,27.529,3.673,52.125,11.018,73.793c7.346,21.668,18.364,40.408,33.055,56.217c14.691,15.721,32.029,27.508,52.018,35.367
		c19.986,7.855,42.623,11.785,67.908,11.785c25.083,0,47.569-3.93,67.458-11.785c19.887-7.859,37.177-19.646,51.867-35.367
		c14.789-15.809,25.882-34.658,33.278-56.555c7.396-21.893,11.094-46.832,11.094-74.818c0-28.346-3.647-53.49-10.943-75.432
		s-18.239-40.677-32.829-56.213c-14.492-15.623-31.856-27.343-52.094-35.16c-20.237-7.811-43.348-11.719-69.33-11.719
		c-25.185,0-47.696,4.088-67.535,12.264c-19.838,8.178-37.002,20.442-51.491,36.796c-14.492,16.267-25.36,35.296-32.605,57.101
		S407.278-647.805,407.278-620.463z"/>
	<path fill="#FFFFFF" d="M864.434-541.693c0.899,14.811,4.222,28.166,9.967,40.066c5.747,11.898,13.917,22.35,24.512,31.344
		c10.692,8.994,23.684,15.738,38.974,20.234c15.291,4.498,32.88,6.748,52.769,6.748c16.988,0,32.304-1.771,45.945-5.314
		s25.609-8.857,35.904-15.945c10.393-7.086,18.188-15.578,23.385-25.482c5.196-9.9,7.795-21.211,7.795-33.934
		c0-8.811-1.549-16.943-4.646-24.395c-3.1-7.445-7.746-14.217-13.941-20.305c-6.198-6.178-14.169-11.721-23.913-16.627
		s-21.261-9.174-34.551-12.811l-50.219-12.945l-50.219-12.947c-30.881-8.355-54.041-20.895-69.481-37.613
		s-23.16-37.613-23.16-62.688c0-15.809,3.472-30.211,10.417-43.201c6.946-12.989,17.364-24.573,31.257-34.75
		c13.99-10.172,30.004-17.804,48.044-22.895c18.037-5.086,38.101-7.633,60.188-7.633c23.184,0,43.82,2.748,61.908,8.248
		c18.09,5.494,33.631,13.742,46.624,24.732c12.99,10.994,22.734,23.919,29.231,38.773c6.495,14.854,9.744,31.639,9.744,50.352
		h-20.237h-20.237c0-14.172-2.398-26.754-7.195-37.748c-4.797-10.99-11.992-20.393-21.587-28.21
		c-9.594-7.904-20.888-13.835-33.879-17.787c-12.992-3.952-27.684-5.925-44.072-5.925c-15.89,0-30.356,1.656-43.397,4.977
		c-13.042,3.314-24.66,8.291-34.854,14.92c-10.096,6.633-17.666,14.767-22.713,24.394c-5.046,9.632-7.568,20.763-7.568,33.388
		c0,17.264,7.02,31.867,21.061,43.816s35.103,21.238,63.187,27.867l33.279,8.039l33.279,8.041
		c19.687,4.547,36.951,10.178,51.792,16.898c14.84,6.727,27.258,14.539,37.253,23.439c10.093,8.814,17.664,18.785,22.709,29.916
		c5.048,11.133,7.572,23.418,7.572,36.861c0,18.174-3.497,34.414-10.494,48.723c-6.996,14.309-17.489,26.689-31.48,37.133
		c-13.892,10.357-30.731,18.125-50.52,23.305c-19.788,5.178-42.522,7.768-68.206,7.768c-24.786,0-46.973-2.906-66.56-8.723
		c-19.588-5.811-36.576-14.533-50.967-26.166c-14.392-11.627-25.185-25.434-32.38-41.428c-7.195-15.988-10.794-34.156-10.794-54.512
		h20.237H864.434z"/>
	<path fill="#3DB54A" d="M1188.384-709.246h16.188h16.187v24.279v24.281h0.84h0.84c9.207-17.303,21.347-31.535,36.909-41.445
		c15.558-9.905,34.539-15.487,57.42-15.487c18.976,0,36.98,4.606,51.563,13.954c14.582,9.35,25.745,23.441,31.05,42.422
		c8.65-18.98,22.044-33.072,38.024-42.422c15.979-9.348,34.538-13.954,53.517-13.954c31.54,0,55.4,8.231,71.38,24.978
		c15.98,16.746,24.072,42,24.072,76.055v97.678v97.686h-17.583h-17.585v-96.846v-96.846c0-23.723-4.465-42.006-15.209-54.352
		c-10.744-12.354-27.768-18.77-52.887-18.77c-30.423,0-49.96,12.561-61.893,31.818c-11.933,19.254-16.255,45.213-16.255,72.004
		v81.496v81.494h-17.586h-17.58v-97.686v-97.678c0.278-19.537-3.63-37.4-13.186-50.381c-9.562-12.973-24.771-21.068-47.099-21.068
		c-30.42,0-51.771,11.441-65.585,30.418c-13.813,18.98-20.093,45.494-20.377,75.635v80.383v80.377h-17.582h-17.583v-144.014
		V-709.246z"/>
	<path fill="#3DB54A" d="M1650.006-621.057c1.68-33.77,14.375-57.908,34.888-73.607c20.518-15.699,48.842-22.954,81.778-22.954
		c25.396,0,51.911,3.908,72.074,17.444c20.164,13.535,33.978,36.697,33.978,75.215v76.469v76.473c0,6.701,1.674,11.998,5.097,15.629
		c3.418,3.625,8.583,5.582,15.561,5.582c1.948,0,4.042-0.277,5.999-0.697c1.951-0.42,3.77-0.977,5.165-1.537v14.795v14.793
		c-3.911,0.834-7.259,1.396-10.815,1.74c-3.563,0.348-7.326,0.49-12.071,0.49c-17.863,0-28.193-5.025-34.054-13.814
		c-5.857-8.791-7.253-21.352-7.253-36.424h-0.559h-0.562c-12.275,18.703-24.696,33.35-40.954,43.332
		c-16.256,9.975-36.354,15.279-63.98,15.279c-26.514,0-50.657-6.559-68.172-20.377c-17.509-13.813-28.395-34.881-28.395-63.908
		c0-40.471,19.673-61.402,48.842-73.336c29.164-11.932,67.817-14.859,105.774-19.324c14.514-1.674,25.816-3.488,33.491-8.863
		c7.676-5.369,11.723-14.303,11.723-30.209c0-23.725-8.512-38.52-22.188-47.377c-13.677-8.863-32.517-11.791-53.168-11.791
		c-21.769,0-40.75,5.021-54.421,15.906c-13.678,10.887-14.609,19.711-21.358,48.32c-0.687,2.916-13.251,2.752-13.251,2.752H1650.006
		z M1837.561-578.631h-0.559h-0.562c-2.229,4.188-7.253,6.979-12.908,8.93c-5.647,1.957-11.927,3.068-16.672,3.908
		c-29.864,5.305-63.356,7.816-89.38,16.049c-26.023,8.23-44.585,22.186-44.585,50.373c0,17.586,7.812,31.818,19.744,41.658
		c11.933,9.834,27.98,15.279,44.448,15.279c26.793,0,52.048-8.514,70.538-24.072c18.49-15.557,30.216-38.164,29.935-66.357v-22.883
		V-578.631z"/>
	<path fill="#3DB54A" d="M2089.303-709.201c-31.753-0.072-49.676,4.186-69.142,15.557c-19.467,11.371-34.678,28.814-43.609,51.982
		h-0.562h-0.557v-33.77v-33.77h-16.189h-16.185v144.008v144.014h17.58h17.585v-76.752v-76.746c0-29.867,11.862-56.938,31.68-76.125
		c19.813-19.189,40.753-29.295,79.088-28.859h3.102h12.56h9.769h12.56h12.56v49.256v49.264v49.262v49.256
		c-0.142,12.281,0.763,22.471,2.938,30.844c2.17,8.371,5.604,14.93,10.526,19.955c4.917,5.021,11.322,8.51,19.423,10.744
		c8.105,2.236,17.907,3.211,29.627,3.211c2.654,0,5.271-0.07,7.869-0.174c2.597-0.104,5.182-0.246,7.76-0.387
		c2.583-0.137,5.162-0.279,7.762-0.383c2.601-0.104,5.217-0.174,7.866-0.174v-7.539v-7.533v-7.539v-7.533
		c-2.508,0.277-5.021,0.523-7.533,0.73c-2.514,0.213-5.021,0.387-7.534,0.523c-2.513,0.141-5.025,0.244-7.539,0.316
		c-2.513,0.07-5.02,0.104-7.533,0.104c-6.279-0.414-11.202-1.57-15.045-3.418c-3.849-1.848-6.617-4.395-8.607-7.605
		c-1.99-3.209-3.194-7.08-3.897-11.582c-0.709-4.498-0.916-9.627-0.916-15.352v-48.559v-48.564v-48.564v-48.559h14.653h14.652h9.07
		c0,0,14.124,0.535,17.357-1.832c3.488-2.557,2.872-11.146,2.872-11.146v-1.816v-7.391v-7.398h-14.647h-14.652h-14.652h-14.653
		v-21.629v-21.631v-21.63v-21.63h-8.792h-8.793h-8.787h-8.793v21.63v21.63v21.631v21.629h-12.56h-12.56h-12.56"/>
	<path fill="#FFFFFF" d="M12.094-340.105h54.593c47.521,1.004,72.496,24.719,72.496,71.746s-24.976,70.74-72.496,71.746H12.094
		V-340.105z M27.122-208.271h32.049c45.312,0.201,64.983-17.283,64.983-60.088c0-42.809-19.672-60.289-64.983-60.09H27.122V-208.271
		z"/>
	<path fill="#FFFFFF" d="M155.552-340.105h13.925v20.299h-13.925V-340.105z M155.552-300.314h13.925v103.701h-13.925V-300.314z"/>
	<path fill="#FFFFFF" d="M287.064-205.055c-0.221,30.949-13.262,49.84-50.615,49.84c-22.766,0-45.311-9.242-47.3-31.35h13.925
		c3.094,15.273,17.903,20.697,33.375,20.697c25.64,0,36.69-13.865,36.69-39.188v-14.066h-0.441
		c-6.411,12.66-19.893,21.303-36.249,21.303c-36.47,0-51.5-23.715-51.5-53.258c0-28.537,18.566-52.252,51.5-52.252
		c16.577,0,30.723,9.447,36.249,20.9h0.441v-17.887h13.925V-205.055z M273.14-249.67c0-20.297-10.389-43.008-36.69-43.008
		c-26.522,0-37.575,21.506-37.575,43.008c0,20.9,11.936,41.199,37.575,41.199C260.54-208.471,273.14-228.568,273.14-249.67z"/>
	<path fill="#FFFFFF" d="M308.294-340.105h13.925v20.299h-13.925V-340.105z M308.294-300.314h13.925v103.701h-13.925V-300.314z"/>
	<path fill="#FFFFFF" d="M365.542-300.314h23.208v10.652h-23.208v69.938c0,8.24,1.326,13.061,11.272,13.664
		c3.979,0,7.956-0.199,11.936-0.604v10.854c-4.2,0-8.178,0.4-12.378,0.4c-18.566,0-24.976-5.625-24.755-23.311v-70.941h-19.893
		v-10.652h19.893v-31.15h13.925V-300.314z"/>
	<path fill="#FFFFFF" d="M402.014-268.561c1.326-24.318,20.113-34.768,46.194-34.768c20.113,0,41.996,5.629,41.996,33.361v55.064
		c0,4.824,2.651,7.637,8.178,7.637c1.547,0,3.315-0.4,4.421-0.805v10.652c-3.095,0.602-5.306,0.805-9.063,0.805
		c-14.146,0-16.356-7.234-16.356-18.088h-0.441c-9.726,13.465-19.672,21.102-41.554,21.102c-20.997,0-38.237-9.447-38.237-30.346
		c0-29.141,31.164-30.146,61.225-33.361c11.493-1.205,17.903-2.611,17.903-14.066c0-17.084-13.482-21.305-29.839-21.305
		c-17.24,0-30.061,7.234-30.502,24.117H402.014z M476.279-253.287h-0.442c-1.769,3.016-7.957,4.021-11.714,4.623
		c-23.65,3.818-53.047,3.617-53.047,23.914c0,12.66,12.377,20.498,25.417,20.498c21.219,0,40.007-12.258,39.786-32.557V-253.287z"/>
	<path fill="#FFFFFF" d="M512.757-340.105h13.925v143.492h-13.925V-340.105z"/>
	<path fill="#FFFFFF" d="M606.038-340.105h22.103l54.594,125.805l54.372-125.805h22.104v143.492h-15.03v-123.998h-0.441
		l-53.932,123.998h-14.146L621.51-320.611h-0.441v123.998h-15.03V-340.105z"/>
	<path fill="#FFFFFF" d="M790.609-245.047c0.221,18.49,10.83,40.795,37.575,40.795c20.334,0,31.386-10.852,35.806-26.527h13.925
		c-5.968,23.514-20.998,37.18-49.73,37.18c-36.249,0-51.5-25.322-51.5-54.863c0-27.332,15.251-54.865,51.5-54.865
		c36.69,0,51.278,29.143,50.174,58.281H790.609z M864.434-255.699c-0.664-19.092-13.705-36.979-36.249-36.979
		c-22.766,0-35.364,18.088-37.575,36.979H864.434z"/>
	<path fill="#FFFFFF" d="M891.628-300.314h12.819v24.318h0.443c7.072-16.682,22.544-26.527,43.099-25.725v12.66
		c-25.196-1.205-42.437,15.676-42.437,37.18v55.268h-13.925V-300.314z"/>
	<path fill="#FFFFFF" d="M1032.207-267.758c-3.759-15.475-14.146-24.92-32.271-24.92c-26.745,0-40.006,22.107-40.006,44.215
		c0,22.105,13.261,44.211,40.006,44.211c17.24,0,31.386-12.258,33.153-29.541h13.926c-3.758,24.92-21.66,40.193-47.079,40.193
		c-34.923,0-53.931-25.121-53.931-54.863c0-29.744,19.008-54.865,53.931-54.865c24.313,0,43.101,11.855,46.194,35.57H1032.207z"/>
	<path fill="#FFFFFF" d="M1060.728-340.105h13.925v57.678h0.441c5.085-12.459,20.336-20.9,36.47-20.9
		c32.048,0,41.775,15.273,41.775,39.992v66.723h-13.925v-64.711c0-17.889-6.411-31.354-28.956-31.354
		c-22.102,0-35.364,15.275-35.806,35.572v60.492h-13.925V-340.105z"/>
	<path fill="#FFFFFF" d="M1172.797-268.561c1.324-24.318,20.111-34.768,46.192-34.768c20.115,0,41.996,5.629,41.996,33.361v55.064
		c0,4.824,2.651,7.637,8.177,7.637c1.548,0,3.316-0.4,4.423-0.805v10.652c-3.096,0.602-5.307,0.805-9.063,0.805
		c-14.148,0-16.358-7.234-16.358-18.088h-0.441c-9.725,13.465-19.671,21.102-41.552,21.102c-20.998,0-38.237-9.447-38.237-30.346
		c0-29.141,31.164-30.146,61.223-33.361c11.496-1.205,17.904-2.611,17.904-14.066c0-17.084-13.484-21.305-29.84-21.305
		c-17.239,0-30.061,7.234-30.502,24.117H1172.797z M1247.061-253.287h-0.442c-1.769,3.016-7.956,4.021-11.714,4.623
		c-23.65,3.818-53.048,3.617-53.048,23.914c0,12.66,12.379,20.498,25.419,20.498c21.218,0,40.006-12.258,39.785-32.557V-253.287z"/>
	<path fill="#FFFFFF" d="M1283.098-300.314h13.922v17.887h0.441c5.089-12.459,20.339-20.9,36.469-20.9
		c32.05,0,41.78,15.273,41.78,39.992v66.723h-13.928v-64.711c0-17.889-6.411-31.354-28.956-31.354
		c-22.1,0-35.365,15.275-35.807,35.572v60.492h-13.922V-300.314z"/>
	<path fill="#FFFFFF" d="M1418.592-300.314h23.208v10.652h-23.208v69.938c0,8.24,1.324,13.061,11.275,13.664
		c3.979,0,7.953-0.199,11.933-0.604v10.854c-4.197,0-8.177,0.4-12.374,0.4c-18.569,0-24.978-5.625-24.76-23.311v-70.941h-19.894
		v-10.652h19.894v-31.15h13.926V-300.314z"/>
	<path fill="#FFFFFF" d="M1522.04-243.842c-0.662,29.541,22.77,38.586,51.503,38.586c16.577,0,41.771-8.24,41.771-29.141
		c0-16.279-17.901-22.709-32.488-25.926l-35.144-7.836c-18.569-4.221-35.585-12.26-35.585-34.568
		c0-14.066,9.942-40.393,54.367-40.393c31.167,0,58.575,15.271,58.354,44.615h-15.032c-0.886-21.906-20.773-32.961-43.1-32.961
		c-20.553,0-39.563,7.236-39.563,28.539c0,13.465,11.049,19.09,23.873,21.906l38.458,8.641
		c22.322,5.426,40.889,14.268,40.889,37.781c0,9.848-4.418,40.998-60.342,40.998c-37.354,0-64.757-15.273-62.99-50.242H1522.04z"/>
	<path fill="#FFFFFF" d="M1654.226-245.047c0.218,18.49,10.831,40.795,37.574,40.795c20.33,0,31.388-10.852,35.804-26.527h13.928
		c-5.97,23.514-20.998,37.18-49.731,37.18c-36.25,0-51.502-25.322-51.502-54.863c0-27.332,15.252-54.865,51.502-54.865
		c36.692,0,51.276,29.143,50.173,58.281H1654.226z M1728.05-255.699c-0.665-19.092-13.706-36.979-36.25-36.979
		c-22.767,0-35.367,18.088-37.574,36.979H1728.05z"/>
	<path fill="#FFFFFF" d="M1755.246-300.314h12.815v24.318h0.441c7.076-16.682,22.546-26.527,43.103-25.725v12.66
		c-25.198-1.205-42.438,15.676-42.438,37.18v55.268h-13.922V-300.314z"/>
	<path fill="#FFFFFF" d="M1806.524-300.314h15.471l35.809,91.041h0.441l35.362-91.041h14.369l-42.661,103.701h-14.808
		L1806.524-300.314z"/>
	<path fill="#FFFFFF" d="M1916.382-340.105h13.925v20.299h-13.925V-340.105z M1916.382-300.314h13.925v103.701h-13.925V-300.314z"/>
	<path fill="#FFFFFF" d="M2031.984-267.758c-3.762-15.475-14.146-24.92-32.271-24.92c-26.744,0-40.009,22.107-40.009,44.215
		c0,22.105,13.265,44.211,40.009,44.211c17.239,0,31.388-12.258,33.15-29.541h13.925c-3.756,24.92-21.657,40.193-47.075,40.193
		c-34.926,0-53.935-25.121-53.935-54.863c0-29.744,19.009-54.865,53.935-54.865c24.31,0,43.102,11.855,46.192,35.57H2031.984z"/>
	<path fill="#FFFFFF" d="M2068.902-245.047c0.221,18.49,10.828,40.795,37.574,40.795c20.336,0,31.385-10.852,35.804-26.527h13.931
		c-5.97,23.514-21.001,37.18-49.734,37.18c-36.25,0-51.499-25.322-51.499-54.863c0-27.332,15.249-54.865,51.499-54.865
		c36.689,0,51.282,29.143,50.176,58.281H2068.902z M2142.725-255.699c-0.662-19.092-13.705-36.979-36.248-36.979
		c-22.767,0-35.367,18.088-37.574,36.979H2142.725z"/>
	<path fill="#FFFFFF" d="M2238.218-269.967c-0.66-15.676-13.923-22.711-29.84-22.711c-12.374,0-26.964,4.422-26.964,17.887
		c0,11.254,14.148,15.273,23.65,17.484l18.563,3.818c15.915,2.211,32.492,10.65,32.492,28.738c0,22.508-24.53,31.15-45.752,31.15
		c-26.522,0-44.645-11.254-46.857-36.576h13.925c1.106,17.082,15.031,25.924,33.599,25.924c13.036,0,31.164-5.225,31.164-19.693
		c0-12.059-12.38-16.078-24.978-18.893l-17.901-3.615c-18.125-4.422-31.83-10.051-31.83-27.732
		c0-21.105,22.765-29.143,42.879-29.143c22.77,0,40.89,10.854,41.775,33.361H2238.218z"/>
</g>
<g>
	<path fill="#FFFFFF" d="M20.279,37.572h81.1h81.1c47.769,0,83.596,9.382,107.481,28.145c23.886,18.758,35.829,46.902,35.829,84.422
		c0,36.98-14.091,64.711-42.273,83.201c-28.183,18.484-70.456,27.73-126.821,27.73h-47.37h-47.37v88.854v88.854H41.117H20.279
		V238.174V37.572z M61.954,70.007v79.313v79.314h48.569h48.569c24.185,0,44.497-1.656,60.937-4.971
		c16.44-3.32,29.008-8.291,37.702-14.926c8.793-6.721,15.389-15.24,19.786-25.549c4.398-10.314,6.598-22.422,6.598-36.321
		c0-25.62-9.77-44.836-29.308-57.646c-19.539-12.811-48.846-19.216-87.919-19.216h-52.468H61.954z"/>
	<path fill="#FFFFFF" d="M365.604,239.811c0-32.615,4.672-61.85,14.015-87.693c9.345-25.85,23.361-48.313,42.05-67.393
		c18.687-19.166,40.349-33.546,64.983-43.129c24.635-9.589,52.244-14.381,82.824-14.381c32.279,0,61.086,4.748,86.42,14.244
		c25.335,9.49,47.196,23.734,65.586,42.721c18.387,18.992,32.178,41.456,41.373,67.393c9.194,25.938,13.792,55.352,13.792,88.238
		c0,31.07-4.598,59.209-13.792,84.422c-9.195,25.211-22.986,47.496-41.373,66.848c-18.39,19.352-40.126,33.861-65.209,43.537
		c-25.085,9.676-53.518,14.518-85.297,14.518c-32.182,0-60.864-4.863-86.048-14.582c-25.185-9.721-46.87-24.301-65.059-43.746
		c-18.089-19.531-31.655-41.881-40.7-67.049C370.126,298.59,365.604,270.609,365.604,239.811z M407.278,239.537
		c0,27.529,3.673,52.125,11.018,73.793c7.346,21.668,18.364,40.408,33.055,56.217c14.691,15.721,32.029,27.508,52.018,35.367
		c19.986,7.855,42.623,11.785,67.908,11.785c25.083,0,47.569-3.93,67.458-11.785c19.887-7.859,37.177-19.646,51.867-35.367
		c14.789-15.809,25.882-34.658,33.278-56.555c7.396-21.893,11.094-46.832,11.094-74.818c0-28.346-3.647-53.49-10.943-75.432
		s-18.239-40.677-32.829-56.213c-14.492-15.623-31.856-27.343-52.094-35.16c-20.237-7.811-43.348-11.719-69.33-11.719
		c-25.185,0-47.696,4.088-67.535,12.264c-19.838,8.178-37.002,20.442-51.491,36.796c-14.492,16.267-25.36,35.296-32.605,57.101
		S407.278,212.195,407.278,239.537z"/>
	<path fill="#FFFFFF" d="M864.434,318.307c0.899,14.811,4.222,28.166,9.967,40.066c5.747,11.898,13.917,22.35,24.512,31.344
		c10.692,8.994,23.684,15.738,38.974,20.234c15.291,4.498,32.88,6.748,52.769,6.748c16.988,0,32.304-1.771,45.945-5.314
		s25.609-8.857,35.904-15.945c10.393-7.086,18.188-15.578,23.385-25.482c5.196-9.9,7.795-21.211,7.795-33.934
		c0-8.811-1.549-16.943-4.646-24.395c-3.1-7.445-7.746-14.217-13.941-20.305c-6.198-6.178-14.169-11.721-23.913-16.627
		s-21.261-9.174-34.551-12.811l-50.219-12.945l-50.219-12.947c-30.881-8.355-54.041-20.895-69.481-37.613
		s-23.16-37.613-23.16-62.688c0-15.809,3.472-30.211,10.417-43.201c6.946-12.989,17.364-24.573,31.257-34.75
		c13.99-10.172,30.004-17.804,48.044-22.895c18.037-5.086,38.101-7.633,60.188-7.633c23.184,0,43.82,2.748,61.908,8.248
		c18.09,5.494,33.631,13.742,46.624,24.732c12.99,10.994,22.734,23.919,29.231,38.773c6.495,14.854,9.744,31.639,9.744,50.352
		h-20.237h-20.237c0-14.172-2.398-26.754-7.195-37.748c-4.797-10.99-11.992-20.393-21.587-28.21
		c-9.594-7.904-20.888-13.835-33.879-17.787c-12.992-3.952-27.684-5.925-44.072-5.925c-15.89,0-30.356,1.656-43.397,4.977
		c-13.042,3.314-24.66,8.291-34.854,14.92c-10.096,6.633-17.666,14.767-22.713,24.394c-5.046,9.632-7.568,20.763-7.568,33.388
		c0,17.264,7.02,31.867,21.061,43.816s35.103,21.238,63.187,27.867l33.279,8.039l33.279,8.041
		c19.687,4.547,36.951,10.178,51.792,16.898c14.84,6.727,27.258,14.539,37.253,23.439c10.093,8.814,17.664,18.785,22.709,29.916
		c5.048,11.133,7.572,23.418,7.572,36.861c0,18.174-3.497,34.414-10.494,48.723c-6.996,14.309-17.489,26.689-31.48,37.133
		c-13.892,10.357-30.731,18.125-50.52,23.305c-19.788,5.178-42.522,7.768-68.206,7.768c-24.786,0-46.973-2.906-66.56-8.723
		c-19.588-5.811-36.576-14.533-50.967-26.166c-14.392-11.627-25.185-25.434-32.38-41.428c-7.195-15.988-10.794-34.156-10.794-54.512
		h20.237H864.434z"/>
	<path fill="#3DB54A" d="M1188.384,150.754h16.188h16.187v24.279v24.281h0.84h0.84c9.207-17.303,21.347-31.535,36.909-41.445
		c15.558-9.905,34.539-15.487,57.42-15.487c18.976,0,36.98,4.606,51.563,13.954c14.582,9.35,25.745,23.441,31.05,42.422
		c8.65-18.98,22.044-33.072,38.024-42.422c15.979-9.348,34.538-13.954,53.517-13.954c31.54,0,55.4,8.231,71.38,24.978
		c15.98,16.746,24.072,42,24.072,76.055v97.678v97.686h-17.583h-17.585v-96.846v-96.846c0-23.723-4.465-42.006-15.209-54.352
		c-10.744-12.354-27.768-18.77-52.887-18.77c-30.423,0-49.96,12.561-61.893,31.818c-11.933,19.254-16.255,45.213-16.255,72.004
		v81.496v81.494h-17.586h-17.58v-97.686v-97.678c0.278-19.537-3.63-37.4-13.186-50.381c-9.562-12.973-24.771-21.068-47.099-21.068
		c-30.42,0-51.771,11.441-65.585,30.418c-13.813,18.98-20.093,45.494-20.377,75.635V358.4v80.377h-17.582h-17.583V294.764V150.754z"
		/>
	<path fill="#3DB54A" d="M1650.006,238.943c1.68-33.77,14.375-57.908,34.888-73.607c20.518-15.699,48.842-22.954,81.778-22.954
		c25.396,0,51.911,3.908,72.074,17.444c20.164,13.535,33.978,36.697,33.978,75.215v76.469v76.473c0,6.701,1.674,11.998,5.097,15.629
		c3.418,3.625,8.583,5.582,15.561,5.582c1.948,0,4.042-0.277,5.999-0.697c1.951-0.42,3.77-0.977,5.165-1.537v14.795v14.793
		c-3.911,0.834-7.259,1.396-10.815,1.74c-3.563,0.348-7.326,0.49-12.071,0.49c-17.863,0-28.193-5.025-34.054-13.814
		c-5.857-8.791-7.253-21.352-7.253-36.424h-0.559h-0.562c-12.275,18.703-24.696,33.35-40.954,43.332
		c-16.256,9.975-36.354,15.279-63.98,15.279c-26.514,0-50.657-6.559-68.172-20.377c-17.509-13.813-28.395-34.881-28.395-63.908
		c0-40.471,19.673-61.402,48.842-73.336c29.164-11.932,67.817-14.859,105.774-19.324c14.514-1.674,25.816-3.488,33.491-8.863
		c7.676-5.369,11.723-14.303,11.723-30.209c0-23.725-8.512-38.52-22.188-47.377c-13.677-8.863-32.517-11.791-53.168-11.791
		c-21.769,0-40.75,5.021-54.421,15.906c-13.678,10.887-14.609,19.711-21.358,48.32c-0.687,2.916-13.251,2.752-13.251,2.752H1650.006
		z M1837.561,281.369h-0.559h-0.562c-2.229,4.188-7.253,6.979-12.908,8.93c-5.647,1.957-11.927,3.068-16.672,3.908
		c-29.864,5.305-63.356,7.816-89.38,16.049c-26.023,8.23-44.585,22.186-44.585,50.373c0,17.586,7.812,31.818,19.744,41.658
		c11.933,9.834,27.98,15.279,44.448,15.279c26.793,0,52.048-8.514,70.538-24.072c18.49-15.557,30.216-38.164,29.935-66.357v-22.883
		V281.369z"/>
	<path fill="#3DB54A" d="M2089.303,150.799c-31.753-0.072-49.676,4.186-69.142,15.557c-19.467,11.371-34.678,28.814-43.609,51.982
		h-0.562h-0.557v-33.77v-33.77h-16.189h-16.185v144.008V438.82h17.58h17.585v-76.752v-76.746c0-29.867,11.862-56.938,31.68-76.125
		c19.813-19.189,40.753-29.295,79.088-28.859h3.102h12.56h9.769h12.56h12.56v49.256v49.264v49.262v49.256
		c-0.142,12.281,0.763,22.471,2.938,30.844c2.17,8.371,5.604,14.93,10.526,19.955c4.917,5.021,11.322,8.51,19.423,10.744
		c8.105,2.236,17.907,3.211,29.627,3.211c2.654,0,5.271-0.07,7.869-0.174c2.597-0.104,5.182-0.246,7.76-0.387
		c2.583-0.137,5.162-0.279,7.762-0.383c2.601-0.104,5.217-0.174,7.866-0.174v-7.539v-7.533V418.4v-7.533
		c-2.508,0.277-5.021,0.523-7.533,0.73c-2.514,0.213-5.021,0.387-7.534,0.523c-2.513,0.141-5.025,0.244-7.539,0.316
		c-2.513,0.07-5.02,0.104-7.533,0.104c-6.279-0.414-11.202-1.57-15.045-3.418c-3.849-1.848-6.617-4.395-8.607-7.605
		c-1.99-3.209-3.194-7.08-3.897-11.582c-0.709-4.498-0.916-9.627-0.916-15.352v-48.559v-48.564v-48.564v-48.559h14.653h14.652h9.07
		c0,0,14.124,0.535,17.357-1.832c3.488-2.557,2.872-11.146,2.872-11.146v-1.816v-7.391v-7.398h-14.647h-14.652h-14.652h-14.653
		v-21.629v-21.631v-21.63v-21.63h-8.792h-8.793h-8.787h-8.793v21.63v21.63v21.631v21.629h-12.56h-12.56h-12.56"/>
</g>
<path fill="#3DB54A" d="M-2085.056-1017.401c0,15.655-12.69,28.346-28.346,28.346h-425.197c-15.654,0-28.346-12.691-28.346-28.346
	v-425.197c0-15.656,12.691-28.347,28.346-28.347h425.197c15.655,0,28.346,12.691,28.346,28.347V-1017.401z"/>
<g>
	<g>
		<path fill="#231F20" d="M-2544.264-1400.805h31.46h31.473c18.528,0,32.43,3.635,41.699,10.923
			c9.271,7.275,13.899,18.197,13.899,32.75c0,14.348-5.463,25.107-16.401,32.286c-10.93,7.167-27.333,10.76-49.201,10.76h-18.386
			h-18.373v34.471v34.479h-8.091h-8.079v-77.833V-1400.805z M-2528.094-1388.225v30.773v30.777h18.841h18.842
			c9.392,0,17.271-0.644,23.648-1.931c6.376-1.284,11.251-3.217,14.629-5.785c3.409-2.614,5.969-5.921,7.674-9.92
			c1.711-3.998,2.559-8.699,2.559-14.089c0-9.943-3.784-17.4-11.367-22.37c-7.584-4.971-18.953-7.456-34.116-7.456h-20.354
			H-2528.094z"/>
		<path fill="#231F20" d="M-2410.278-1322.339c0-12.649,1.813-23.999,5.434-34.021c3.625-10.034,9.067-18.75,16.324-26.151
			c7.242-7.439,15.648-13.016,25.205-16.736c9.559-3.717,20.275-5.582,32.141-5.582c12.52,0,23.702,1.848,33.535,5.533
			c9.821,3.682,18.313,9.204,25.435,16.571c7.145,7.369,12.485,16.084,16.071,26.148c3.562,10.068,5.343,21.479,5.343,34.238
			c0,12.057-1.781,22.977-5.343,32.761c-3.586,9.782-8.927,18.426-16.071,25.937c-7.121,7.507-15.556,13.135-25.299,16.888
			c-9.731,3.754-20.763,5.633-33.093,5.633c-12.486,0-23.615-1.887-33.387-5.659c-9.771-3.769-18.184-9.424-25.238-16.974
			c-7.023-7.575-12.287-16.249-15.793-26.015C-2408.521-1299.532-2410.278-1310.389-2410.278-1322.339z M-2394.108-1322.441
			c0,10.681,1.424,20.225,4.273,28.629c2.849,8.404,7.123,15.675,12.82,21.813c5.705,6.101,12.43,10.672,20.188,13.719
			c7.756,3.052,16.537,4.572,26.354,4.572c9.726,0,18.45-1.52,26.174-4.572c7.703-3.047,14.423-7.619,20.12-13.719
			c5.743-6.138,10.037-13.446,12.91-21.941c2.87-8.496,4.309-18.177,4.309-29.03c0-11.002-1.415-20.755-4.241-29.271
			c-2.842-8.516-7.078-15.781-12.757-21.811c-5.606-6.057-12.347-10.611-20.197-13.645c-7.855-3.025-16.827-4.544-26.905-4.544
			c-9.773,0-18.503,1.588-26.2,4.763c-7.702,3.165-14.357,7.925-19.978,14.274c-5.631,6.311-9.848,13.696-12.652,22.151
			C-2392.706-1342.591-2394.108-1333.05-2394.108-1322.441z"/>
		<path fill="#231F20" d="M-2216.729-1291.883c0.344,5.75,1.637,10.931,3.871,15.546c2.226,4.616,5.397,8.671,9.499,12.166
			c4.154,3.485,9.19,6.103,15.128,7.847c5.927,1.745,12.753,2.618,20.478,2.618c6.588,0,12.521-0.682,17.815-2.059
			c5.299-1.377,9.939-3.434,13.947-6.189c4.026-2.746,7.054-6.041,9.057-9.883c2.026-3.842,3.028-8.235,3.028-13.167
			c0-3.421-0.602-6.578-1.804-9.463c-1.202-2.894-3.006-5.521-5.408-7.885c-2.404-2.396-5.487-4.544-9.271-6.449
			c-3.783-1.902-8.245-3.558-13.408-4.971l-19.484-5.024l-19.489-5.021c-11.973-3.244-20.952-8.105-26.962-14.595
			c-5.99-6.488-8.983-14.595-8.983-24.327c0-6.131,1.347-11.719,4.038-16.76c2.693-5.041,6.746-9.536,12.143-13.479
			c5.43-3.95,11.628-6.91,18.642-8.884c6.986-1.977,14.767-2.966,23.335-2.966c9.006,0,17.004,1.068,24.039,3.207
			c7.011,2.126,13.043,5.331,18.074,9.591c5.052,4.266,8.836,9.285,11.35,15.046c2.516,5.762,3.785,12.279,3.785,19.534h-7.856
			h-7.858c0-5.498-0.935-10.381-2.78-14.644c-1.871-4.26-4.652-7.916-8.387-10.949c-3.723-3.065-8.11-5.364-13.138-6.9
			c-5.045-1.528-10.75-2.296-17.092-2.296c-6.171,0-11.788,0.64-16.838,1.93c-5.076,1.285-9.584,3.215-13.529,5.786
			c-3.91,2.577-6.862,5.732-8.82,9.466c-1.958,3.741-2.926,8.058-2.926,12.955c0,6.7,2.723,12.37,8.155,17.002
			c5.454,4.635,13.635,8.238,24.519,10.81l12.908,3.125l12.923,3.116c7.646,1.768,14.332,3.953,20.096,6.557
			c5.765,2.608,10.58,5.641,14.459,9.093c3.918,3.426,6.843,7.288,8.801,11.613c1.96,4.315,2.952,9.083,2.952,14.294
			c0,7.059-1.358,13.357-4.073,18.907c-2.717,5.553-6.791,10.355-12.221,14.409c-5.387,4.019-11.932,7.034-19.608,9.043
			c-7.682,2.007-16.494,3.013-26.468,3.013c-9.614,0-18.225-1.128-25.816-3.385c-7.587-2.255-14.198-5.639-19.781-10.151
			c-5.569-4.512-9.761-9.871-12.559-16.074c-2.785-6.206-4.185-13.253-4.185-21.152h7.857H-2216.729z"/>
	</g>
	<g>
		<path fill="#FFFFFF" d="M-2536.624-1174.658h6.523h6.527v9.79v9.791h0.34h0.334c3.717-6.978,8.607-12.72,14.883-16.714
			c6.274-3.986,13.926-6.244,23.149-6.244c7.649,0,14.907,1.864,20.784,5.625c5.873,3.771,10.379,9.451,12.513,17.106
			c3.491-7.655,8.892-13.335,15.331-17.106c6.442-3.761,13.924-5.625,21.574-5.625c12.711,0,22.332,3.323,28.772,10.076
			c6.442,6.747,9.702,16.93,9.702,30.656v39.376v39.379h-7.086h-7.086v-39.037v-39.047c0-9.558-1.801-16.931-6.135-21.906
			c-4.326-4.977-11.188-7.564-21.32-7.564c-12.264,0-20.138,5.062-24.947,12.828c-4.813,7.756-6.554,18.22-6.554,29.022v32.857
			v32.848h-7.091h-7.084v-39.379v-39.376c0.111-7.875-1.461-15.077-5.315-20.31c-3.856-5.229-9.983-8.49-18.987-8.49
			c-12.262,0-20.871,4.612-26.439,12.261c-5.564,7.651-8.1,18.337-8.215,30.488v32.407v32.398h-7.088h-7.086v-58.055V-1174.658z"/>
		<path fill="#FFFFFF" d="M-2350.536-1139.106c0.678-13.616,5.797-23.342,14.064-29.67c8.271-6.329,19.689-9.258,32.967-9.258
			c10.234,0,20.925,1.577,29.054,7.032c8.129,5.461,13.69,14.797,13.69,30.321v30.832v30.825c0,2.705,0.681,4.835,2.058,6.298
			c1.374,1.467,3.463,2.256,6.275,2.256c0.785,0,1.637-0.116,2.428-0.287c0.784-0.17,1.514-0.394,2.069-0.618v5.967v5.963
			c-1.578,0.332-2.923,0.559-4.359,0.704c-1.435,0.14-2.95,0.193-4.866,0.193c-7.194,0-11.363-2.025-13.728-5.571
			c-2.362-3.538-2.918-8.607-2.918-14.683h-0.23h-0.22c-4.956,7.544-9.958,13.444-16.519,17.474
			c-6.555,4.016-14.649,6.158-25.785,6.158c-10.688,0-20.424-2.642-27.48-8.215c-7.061-5.571-11.447-14.061-11.447-25.761
			c0-16.312,7.932-24.75,19.688-29.567c11.759-4.806,27.341-5.987,42.645-7.788c5.841-0.676,10.4-1.406,13.491-3.572
			c3.107-2.17,4.729-5.772,4.729-12.185c0-9.559-3.431-15.526-8.949-19.093c-5.5-3.571-13.105-4.752-21.428-4.752
			c-8.771,0-16.426,2.023-21.936,6.413c-5.518,4.387-5.892,7.943-8.611,19.473c-0.273,1.176-5.344,1.111-5.344,1.111H-2350.536z
			 M-2274.931-1122.004h-0.22h-0.229c-0.894,1.694-2.917,2.813-5.21,3.601c-2.268,0.789-4.803,1.235-6.72,1.577
			c-12.035,2.141-25.531,3.154-36.023,6.468c-10.493,3.322-17.975,8.947-17.975,20.305c0,7.094,3.152,12.829,7.959,16.794
			c4.808,3.97,11.281,6.159,17.92,6.159c10.795,0,20.978-3.432,28.426-9.698c7.468-6.274,12.182-15.384,12.072-26.754v-9.226
			V-1122.004z"/>
		<path fill="#FFFFFF" d="M-2173.438-1174.637c-12.8-0.033-20.03,1.683-27.881,6.273c-7.853,4.581-13.972,11.613-17.579,20.949
			h-0.227h-0.227v-13.607v-13.615h-6.527h-6.52v58.052v58.057h7.092h7.078v-30.941v-30.938c0-12.042,4.793-22.951,12.77-30.686
			c7.988-7.736,16.427-11.811,31.879-11.636h1.25h5.07h3.942h5.052h5.07v19.852v19.86v19.86v19.857
			c-0.063,4.947,0.307,9.057,1.176,12.435c0.887,3.372,2.269,6.019,4.247,8.044c1.993,2.023,4.568,3.43,7.833,4.326
			c3.265,0.907,7.221,1.3,11.951,1.3c1.067,0,2.116-0.032,3.158-0.07c1.06-0.046,2.095-0.102,3.129-0.155
			c1.054-0.062,2.087-0.117,3.129-0.154c1.062-0.047,2.112-0.075,3.177-0.075v-3.042v-3.036v-3.038v-3.036
			c-1.006,0.116-2.022,0.208-3.026,0.292c-1.023,0.087-2.037,0.156-3.045,0.217c-1.01,0.055-2.025,0.092-3.047,0.125
			c-1.005,0.03-2.021,0.037-3.027,0.037c-2.534-0.161-4.514-0.63-6.062-1.375c-1.552-0.741-2.668-1.769-3.473-3.068
			c-0.806-1.289-1.293-2.85-1.572-4.667c-0.283-1.815-0.376-3.878-0.376-6.19v-19.571v-19.583v-19.574v-19.573h5.92h5.905h3.645
			c0,0,5.701,0.216,7.011-0.74c1.396-1.032,1.147-4.49,1.147-4.49v-0.734v-2.981v-2.983h-5.9h-5.902h-5.905h-5.92v-8.716v-8.725
			v-8.716v-8.715h-3.539h-3.539h-3.555h-3.539v8.715v8.716v8.725v8.716h-5.07h-5.052h-5.071"/>
	</g>
</g>
<path fill="#3DB54A" d="M-1511.058-1017.401c0,15.655-12.69,28.346-28.346,28.346h-425.197c-15.654,0-28.346-12.691-28.346-28.346
	v-425.197c0-15.656,12.691-28.347,28.346-28.347h425.197c15.655,0,28.346,12.691,28.346,28.347V-1017.401z"/>
<g>
	<g>
		<path fill="#FFFFFF" d="M-1970.266-1400.805h31.46h31.473c18.528,0,32.43,3.635,41.699,10.923
			c9.271,7.275,13.899,18.197,13.899,32.75c0,14.348-5.463,25.107-16.401,32.286c-10.93,7.167-27.333,10.76-49.201,10.76h-18.386
			h-18.373v34.471v34.479h-8.091h-8.079v-77.833V-1400.805z M-1954.096-1388.225v30.773v30.777h18.841h18.842
			c9.392,0,17.271-0.644,23.648-1.931c6.376-1.284,11.251-3.217,14.629-5.785c3.409-2.614,5.969-5.921,7.674-9.92
			c1.711-3.998,2.559-8.699,2.559-14.089c0-9.943-3.784-17.4-11.367-22.37c-7.584-4.971-18.953-7.456-34.116-7.456h-20.354
			H-1954.096z"/>
		<path fill="#FFFFFF" d="M-1836.28-1322.339c0-12.649,1.813-23.999,5.434-34.021c3.625-10.034,9.067-18.75,16.324-26.151
			c7.242-7.439,15.648-13.016,25.205-16.736c9.559-3.717,20.275-5.582,32.141-5.582c12.52,0,23.702,1.848,33.535,5.533
			c9.821,3.682,18.313,9.204,25.435,16.571c7.145,7.369,12.485,16.084,16.071,26.148c3.562,10.068,5.343,21.479,5.343,34.238
			c0,12.057-1.781,22.977-5.343,32.761c-3.586,9.782-8.927,18.426-16.071,25.937c-7.121,7.507-15.556,13.135-25.299,16.888
			c-9.731,3.754-20.763,5.633-33.093,5.633c-12.486,0-23.615-1.887-33.387-5.659c-9.771-3.769-18.184-9.424-25.238-16.974
			c-7.023-7.575-12.287-16.249-15.793-26.015C-1834.522-1299.532-1836.28-1310.389-1836.28-1322.339z M-1820.11-1322.441
			c0,10.681,1.424,20.225,4.273,28.629c2.849,8.404,7.123,15.675,12.82,21.813c5.705,6.101,12.43,10.672,20.188,13.719
			c7.756,3.052,16.537,4.572,26.354,4.572c9.726,0,18.45-1.52,26.174-4.572c7.703-3.047,14.423-7.619,20.12-13.719
			c5.743-6.138,10.037-13.446,12.91-21.941c2.87-8.496,4.309-18.177,4.309-29.03c0-11.002-1.415-20.755-4.241-29.271
			c-2.842-8.516-7.078-15.781-12.757-21.811c-5.606-6.057-12.347-10.611-20.197-13.645c-7.855-3.025-16.827-4.544-26.905-4.544
			c-9.773,0-18.503,1.588-26.2,4.763c-7.702,3.165-14.357,7.925-19.978,14.274c-5.631,6.311-9.848,13.696-12.652,22.151
			C-1818.708-1342.591-1820.11-1333.05-1820.11-1322.441z"/>
		<path fill="#FFFFFF" d="M-1642.731-1291.883c0.344,5.75,1.637,10.931,3.871,15.546c2.226,4.616,5.397,8.671,9.499,12.166
			c4.154,3.485,9.19,6.103,15.128,7.847c5.927,1.745,12.753,2.618,20.478,2.618c6.588,0,12.521-0.682,17.815-2.059
			c5.299-1.377,9.939-3.434,13.947-6.189c4.026-2.746,7.054-6.041,9.057-9.883c2.026-3.842,3.028-8.235,3.028-13.167
			c0-3.421-0.602-6.578-1.804-9.463c-1.202-2.894-3.006-5.521-5.408-7.885c-2.404-2.396-5.487-4.544-9.271-6.449
			c-3.783-1.902-8.245-3.558-13.408-4.971l-19.484-5.024l-19.489-5.021c-11.973-3.244-20.952-8.105-26.962-14.595
			c-5.99-6.488-8.983-14.595-8.983-24.327c0-6.131,1.347-11.719,4.038-16.76c2.693-5.041,6.746-9.536,12.143-13.479
			c5.43-3.95,11.628-6.91,18.642-8.884c6.986-1.977,14.767-2.966,23.335-2.966c9.006,0,17.004,1.068,24.039,3.207
			c7.011,2.126,13.043,5.331,18.074,9.591c5.052,4.266,8.836,9.285,11.35,15.046c2.516,5.762,3.785,12.279,3.785,19.534h-7.856
			h-7.858c0-5.498-0.935-10.381-2.78-14.644c-1.871-4.26-4.652-7.916-8.387-10.949c-3.723-3.065-8.11-5.364-13.138-6.9
			c-5.045-1.528-10.75-2.296-17.092-2.296c-6.171,0-11.788,0.64-16.838,1.93c-5.076,1.285-9.584,3.215-13.529,5.786
			c-3.91,2.577-6.862,5.732-8.82,9.466c-1.958,3.741-2.926,8.058-2.926,12.955c0,6.7,2.723,12.37,8.155,17.002
			c5.454,4.635,13.635,8.238,24.519,10.81l12.908,3.125l12.923,3.116c7.646,1.768,14.332,3.953,20.096,6.557
			c5.765,2.608,10.58,5.641,14.459,9.093c3.918,3.426,6.843,7.288,8.801,11.613c1.96,4.315,2.952,9.083,2.952,14.294
			c0,7.059-1.358,13.357-4.073,18.907c-2.717,5.553-6.791,10.355-12.221,14.409c-5.387,4.019-11.932,7.034-19.608,9.043
			c-7.682,2.007-16.494,3.013-26.468,3.013c-9.614,0-18.225-1.128-25.816-3.385c-7.587-2.255-14.198-5.639-19.781-10.151
			c-5.569-4.512-9.761-9.871-12.559-16.074c-2.785-6.206-4.185-13.253-4.185-21.152h7.857H-1642.731z"/>
	</g>
	<g>
		<path fill="#FFFFFF" d="M-1962.626-1174.658h6.523h6.527v9.79v9.791h0.34h0.334c3.717-6.978,8.607-12.72,14.883-16.714
			c6.274-3.986,13.926-6.244,23.149-6.244c7.649,0,14.907,1.864,20.784,5.625c5.873,3.771,10.379,9.451,12.513,17.106
			c3.491-7.655,8.892-13.335,15.331-17.106c6.442-3.761,13.924-5.625,21.574-5.625c12.711,0,22.332,3.323,28.772,10.076
			c6.442,6.747,9.702,16.93,9.702,30.656v39.376v39.379h-7.086h-7.086v-39.037v-39.047c0-9.558-1.801-16.931-6.135-21.906
			c-4.326-4.977-11.188-7.564-21.32-7.564c-12.264,0-20.138,5.062-24.947,12.828c-4.813,7.756-6.554,18.22-6.554,29.022v32.857
			v32.848h-7.091h-7.084v-39.379v-39.376c0.111-7.875-1.461-15.077-5.315-20.31c-3.856-5.229-9.983-8.49-18.987-8.49
			c-12.262,0-20.871,4.612-26.439,12.261c-5.564,7.651-8.1,18.337-8.215,30.488v32.407v32.398h-7.088h-7.086v-58.055V-1174.658z"/>
		<path fill="#FFFFFF" d="M-1776.538-1139.106c0.678-13.616,5.797-23.342,14.064-29.67c8.271-6.329,19.689-9.258,32.967-9.258
			c10.234,0,20.925,1.577,29.054,7.032c8.129,5.461,13.69,14.797,13.69,30.321v30.832v30.825c0,2.705,0.681,4.835,2.058,6.298
			c1.374,1.467,3.463,2.256,6.275,2.256c0.785,0,1.637-0.116,2.428-0.287c0.784-0.17,1.514-0.394,2.069-0.618v5.967v5.963
			c-1.578,0.332-2.923,0.559-4.359,0.704c-1.435,0.14-2.95,0.193-4.866,0.193c-7.194,0-11.363-2.025-13.728-5.571
			c-2.362-3.538-2.918-8.607-2.918-14.683h-0.23h-0.22c-4.956,7.544-9.958,13.444-16.519,17.474
			c-6.555,4.016-14.649,6.158-25.785,6.158c-10.688,0-20.424-2.642-27.48-8.215c-7.061-5.571-11.447-14.061-11.447-25.761
			c0-16.312,7.932-24.75,19.688-29.567c11.759-4.806,27.341-5.987,42.645-7.788c5.841-0.676,10.4-1.406,13.491-3.572
			c3.107-2.17,4.729-5.772,4.729-12.185c0-9.559-3.431-15.526-8.949-19.093c-5.5-3.571-13.105-4.752-21.428-4.752
			c-8.771,0-16.426,2.023-21.936,6.413c-5.518,4.387-5.892,7.943-8.611,19.473c-0.273,1.176-5.344,1.111-5.344,1.111H-1776.538z
			 M-1700.933-1122.004h-0.22h-0.229c-0.894,1.694-2.917,2.813-5.21,3.601c-2.268,0.789-4.803,1.235-6.72,1.577
			c-12.035,2.141-25.531,3.154-36.023,6.468c-10.493,3.322-17.975,8.947-17.975,20.305c0,7.094,3.152,12.829,7.959,16.794
			c4.808,3.97,11.281,6.159,17.92,6.159c10.795,0,20.978-3.432,28.426-9.698c7.468-6.274,12.182-15.384,12.072-26.754v-9.226
			V-1122.004z"/>
		<path fill="#FFFFFF" d="M-1599.439-1174.637c-12.8-0.033-20.03,1.683-27.881,6.273c-7.853,4.581-13.972,11.613-17.579,20.949
			h-0.227h-0.227v-13.607v-13.615h-6.527h-6.52v58.052v58.057h7.092h7.078v-30.941v-30.938c0-12.042,4.793-22.951,12.77-30.686
			c7.988-7.736,16.427-11.811,31.879-11.636h1.25h5.07h3.942h5.052h5.07v19.852v19.86v19.86v19.857
			c-0.063,4.947,0.307,9.057,1.176,12.435c0.887,3.372,2.269,6.019,4.247,8.044c1.993,2.023,4.568,3.43,7.833,4.326
			c3.265,0.907,7.221,1.3,11.951,1.3c1.067,0,2.116-0.032,3.158-0.07c1.06-0.046,2.095-0.102,3.129-0.155
			c1.054-0.062,2.087-0.117,3.129-0.154c1.062-0.047,2.112-0.075,3.177-0.075v-3.042v-3.036v-3.038v-3.036
			c-1.006,0.116-2.022,0.208-3.026,0.292c-1.023,0.087-2.037,0.156-3.045,0.217c-1.01,0.055-2.025,0.092-3.047,0.125
			c-1.005,0.03-2.021,0.037-3.027,0.037c-2.534-0.161-4.514-0.63-6.062-1.375c-1.552-0.741-2.668-1.769-3.473-3.068
			c-0.806-1.289-1.293-2.85-1.572-4.667c-0.283-1.815-0.376-3.878-0.376-6.19v-19.571v-19.583v-19.574v-19.573h5.92h5.905h3.645
			c0,0,5.701,0.216,7.011-0.74c1.396-1.032,1.147-4.49,1.147-4.49v-0.734v-2.981v-2.983h-5.9h-5.902h-5.905h-5.92v-8.716v-8.725
			v-8.716v-8.715h-3.539h-3.539h-3.555h-3.539v8.715v8.716v8.725v8.716h-5.07h-5.052h-5.071"/>
	</g>
</g>
<path fill="#3DB54A" d="M-950.949-1017.401c0,15.655-12.69,28.346-28.346,28.346h-425.197c-15.654,0-28.346-12.691-28.346-28.346
	v-425.197c0-15.656,12.691-28.347,28.346-28.347h425.197c15.655,0,28.346,12.691,28.346,28.347V-1017.401z"/>
<g>
	<g>
		<path fill="#231F20" d="M-1410.157-1400.805h31.46h31.473c18.528,0,32.43,3.635,41.699,10.923
			c9.271,7.275,13.899,18.197,13.899,32.75c0,14.348-5.463,25.107-16.401,32.286c-10.93,7.167-27.333,10.76-49.201,10.76h-18.386
			h-18.373v34.471v34.479h-8.091h-8.079v-77.833V-1400.805z M-1393.987-1388.225v30.773v30.777h18.841h18.842
			c9.392,0,17.271-0.644,23.648-1.931c6.376-1.284,11.251-3.217,14.629-5.785c3.409-2.614,5.969-5.921,7.674-9.92
			c1.711-3.998,2.559-8.699,2.559-14.089c0-9.943-3.784-17.4-11.367-22.37c-7.584-4.971-18.953-7.456-34.116-7.456h-20.354
			H-1393.987z"/>
		<path fill="#231F20" d="M-1276.172-1322.339c0-12.649,1.813-23.999,5.434-34.021c3.625-10.034,9.067-18.75,16.324-26.151
			c7.242-7.439,15.648-13.016,25.205-16.736c9.559-3.717,20.275-5.582,32.141-5.582c12.52,0,23.702,1.848,33.535,5.533
			c9.821,3.682,18.313,9.204,25.435,16.571c7.145,7.369,12.485,16.084,16.071,26.148c3.562,10.068,5.343,21.479,5.343,34.238
			c0,12.057-1.781,22.977-5.343,32.761c-3.586,9.782-8.927,18.426-16.071,25.937c-7.121,7.507-15.556,13.135-25.299,16.888
			c-9.731,3.754-20.763,5.633-33.093,5.633c-12.486,0-23.615-1.887-33.387-5.659c-9.771-3.769-18.184-9.424-25.238-16.974
			c-7.023-7.575-12.287-16.249-15.793-26.015C-1274.414-1299.532-1276.172-1310.389-1276.172-1322.339z M-1260.002-1322.441
			c0,10.681,1.424,20.225,4.273,28.629c2.849,8.404,7.123,15.675,12.82,21.813c5.705,6.101,12.43,10.672,20.188,13.719
			c7.756,3.052,16.537,4.572,26.354,4.572c9.726,0,18.45-1.52,26.174-4.572c7.703-3.047,14.423-7.619,20.12-13.719
			c5.743-6.138,10.037-13.446,12.91-21.941c2.87-8.496,4.309-18.177,4.309-29.03c0-11.002-1.415-20.755-4.241-29.271
			c-2.842-8.516-7.078-15.781-12.757-21.811c-5.606-6.057-12.347-10.611-20.197-13.645c-7.855-3.025-16.827-4.544-26.905-4.544
			c-9.773,0-18.503,1.588-26.2,4.763c-7.702,3.165-14.357,7.925-19.978,14.274c-5.631,6.311-9.848,13.696-12.652,22.151
			C-1258.6-1342.591-1260.002-1333.05-1260.002-1322.441z"/>
		<path fill="#231F20" d="M-1082.623-1291.883c0.344,5.75,1.637,10.931,3.871,15.546c2.226,4.616,5.397,8.671,9.499,12.166
			c4.154,3.485,9.19,6.103,15.128,7.847c5.927,1.745,12.753,2.618,20.478,2.618c6.588,0,12.521-0.682,17.815-2.059
			c5.299-1.377,9.939-3.434,13.947-6.189c4.026-2.746,7.054-6.041,9.057-9.883c2.026-3.842,3.028-8.235,3.028-13.167
			c0-3.421-0.602-6.578-1.804-9.463c-1.202-2.894-3.006-5.521-5.408-7.885c-2.404-2.396-5.487-4.544-9.271-6.449
			c-3.783-1.902-8.245-3.558-13.408-4.971l-19.484-5.024l-19.489-5.021c-11.973-3.244-20.952-8.105-26.962-14.595
			c-5.99-6.488-8.983-14.595-8.983-24.327c0-6.131,1.347-11.719,4.038-16.76c2.693-5.041,6.746-9.536,12.143-13.479
			c5.43-3.95,11.628-6.91,18.642-8.884c6.986-1.977,14.767-2.966,23.335-2.966c9.006,0,17.004,1.068,24.039,3.207
			c7.011,2.126,13.043,5.331,18.074,9.591c5.052,4.266,8.836,9.285,11.35,15.046c2.516,5.762,3.785,12.279,3.785,19.534h-7.856
			h-7.858c0-5.498-0.935-10.381-2.78-14.644c-1.871-4.26-4.652-7.916-8.387-10.949c-3.723-3.065-8.11-5.364-13.138-6.9
			c-5.045-1.528-10.75-2.296-17.092-2.296c-6.171,0-11.788,0.64-16.838,1.93c-5.076,1.285-9.584,3.215-13.529,5.786
			c-3.91,2.577-6.862,5.732-8.82,9.466c-1.958,3.741-2.926,8.058-2.926,12.955c0,6.7,2.723,12.37,8.155,17.002
			c5.454,4.635,13.635,8.238,24.519,10.81l12.908,3.125l12.923,3.116c7.646,1.768,14.332,3.953,20.096,6.557
			c5.765,2.608,10.58,5.641,14.459,9.093c3.918,3.426,6.843,7.288,8.801,11.613c1.96,4.315,2.952,9.083,2.952,14.294
			c0,7.059-1.358,13.357-4.073,18.907c-2.717,5.553-6.791,10.355-12.221,14.409c-5.387,4.019-11.932,7.034-19.608,9.043
			c-7.682,2.007-16.494,3.013-26.468,3.013c-9.614,0-18.225-1.128-25.816-3.385c-7.587-2.255-14.198-5.639-19.781-10.151
			c-5.569-4.512-9.761-9.871-12.559-16.074c-2.785-6.206-4.185-13.253-4.185-21.152h7.857H-1082.623z"/>
	</g>
	<g>
		<path fill="#231F20" d="M-1402.518-1174.658h6.523h6.527v9.79v9.791h0.34h0.334c3.717-6.978,8.607-12.72,14.883-16.714
			c6.274-3.986,13.926-6.244,23.149-6.244c7.649,0,14.907,1.864,20.784,5.625c5.873,3.771,10.379,9.451,12.513,17.106
			c3.491-7.655,8.892-13.335,15.331-17.106c6.442-3.761,13.924-5.625,21.574-5.625c12.711,0,22.332,3.323,28.772,10.076
			c6.442,6.747,9.702,16.93,9.702,30.656v39.376v39.379h-7.086h-7.086v-39.037v-39.047c0-9.558-1.801-16.931-6.135-21.906
			c-4.326-4.977-11.188-7.564-21.32-7.564c-12.264,0-20.138,5.062-24.947,12.828c-4.813,7.756-6.554,18.22-6.554,29.022v32.857
			v32.848h-7.091h-7.084v-39.379v-39.376c0.111-7.875-1.461-15.077-5.315-20.31c-3.856-5.229-9.983-8.49-18.987-8.49
			c-12.262,0-20.871,4.612-26.439,12.261c-5.564,7.651-8.1,18.337-8.215,30.488v32.407v32.398h-7.088h-7.086v-58.055V-1174.658z"/>
		<path fill="#231F20" d="M-1216.43-1139.106c0.678-13.616,5.797-23.342,14.064-29.67c8.271-6.329,19.689-9.258,32.967-9.258
			c10.234,0,20.925,1.577,29.054,7.032c8.129,5.461,13.69,14.797,13.69,30.321v30.832v30.825c0,2.705,0.681,4.835,2.058,6.298
			c1.374,1.467,3.463,2.256,6.275,2.256c0.785,0,1.637-0.116,2.428-0.287c0.784-0.17,1.514-0.394,2.069-0.618v5.967v5.963
			c-1.578,0.332-2.923,0.559-4.359,0.704c-1.435,0.14-2.95,0.193-4.866,0.193c-7.194,0-11.363-2.025-13.728-5.571
			c-2.362-3.538-2.918-8.607-2.918-14.683h-0.23h-0.22c-4.956,7.544-9.958,13.444-16.519,17.474
			c-6.555,4.016-14.649,6.158-25.785,6.158c-10.688,0-20.424-2.642-27.48-8.215c-7.061-5.571-11.447-14.061-11.447-25.761
			c0-16.312,7.932-24.75,19.688-29.567c11.759-4.806,27.341-5.987,42.645-7.788c5.841-0.676,10.4-1.406,13.491-3.572
			c3.107-2.17,4.729-5.772,4.729-12.185c0-9.559-3.431-15.526-8.949-19.093c-5.5-3.571-13.105-4.752-21.428-4.752
			c-8.771,0-16.426,2.023-21.936,6.413c-5.518,4.387-5.892,7.943-8.611,19.473c-0.273,1.176-5.344,1.111-5.344,1.111H-1216.43z
			 M-1140.824-1122.004h-0.22h-0.229c-0.894,1.694-2.917,2.813-5.21,3.601c-2.268,0.789-4.803,1.235-6.72,1.577
			c-12.035,2.141-25.531,3.154-36.023,6.468c-10.493,3.322-17.975,8.947-17.975,20.305c0,7.094,3.152,12.829,7.959,16.794
			c4.808,3.97,11.281,6.159,17.92,6.159c10.795,0,20.978-3.432,28.426-9.698c7.468-6.274,12.182-15.384,12.072-26.754v-9.226
			V-1122.004z"/>
		<path fill="#231F20" d="M-1039.331-1174.637c-12.8-0.033-20.03,1.683-27.881,6.273c-7.853,4.581-13.972,11.613-17.579,20.949
			h-0.227h-0.227v-13.607v-13.615h-6.527h-6.52v58.052v58.057h7.092h7.078v-30.941v-30.938c0-12.042,4.793-22.951,12.77-30.686
			c7.988-7.736,16.427-11.811,31.879-11.636h1.25h5.07h3.942h5.052h5.07v19.852v19.86v19.86v19.857
			c-0.063,4.947,0.307,9.057,1.176,12.435c0.887,3.372,2.269,6.019,4.247,8.044c1.993,2.023,4.568,3.43,7.833,4.326
			c3.265,0.907,7.221,1.3,11.951,1.3c1.067,0,2.116-0.032,3.158-0.07c1.06-0.046,2.095-0.102,3.129-0.155
			c1.054-0.062,2.087-0.117,3.129-0.154c1.062-0.047,2.112-0.075,3.177-0.075v-3.042v-3.036v-3.038v-3.036
			c-1.006,0.116-2.022,0.208-3.026,0.292c-1.023,0.087-2.037,0.156-3.045,0.217c-1.01,0.055-2.025,0.092-3.047,0.125
			c-1.005,0.03-2.021,0.037-3.027,0.037c-2.534-0.161-4.514-0.63-6.062-1.375c-1.552-0.741-2.668-1.769-3.473-3.068
			c-0.806-1.289-1.293-2.85-1.572-4.667c-0.283-1.815-0.376-3.878-0.376-6.19v-19.571v-19.583v-19.574v-19.573h5.92h5.905h3.645
			c0,0,5.701,0.216,7.011-0.74c1.396-1.032,1.147-4.49,1.147-4.49v-0.734v-2.981v-2.983h-5.9h-5.902h-5.905h-5.92v-8.716v-8.725
			v-8.716v-8.715h-3.539h-3.539h-3.555h-3.539v8.715v8.716v8.725v8.716h-5.07h-5.052h-5.071"/>
	</g>
</g>
<g>
	<path fill="#FFFFFF" d="M-770.386-985.555c-17.56,0-31.846-14.286-31.846-31.846v-425.197c0-17.561,14.286-31.847,31.846-31.847
		h425.197c17.56,0,31.846,14.286,31.846,31.847v425.197c0,17.56-14.286,31.846-31.846,31.846H-770.386z"/>
	<path fill="#119948" d="M-345.188-1470.945c15.655,0,28.346,12.691,28.346,28.347v425.197c0,15.655-12.69,28.346-28.346,28.346
		h-425.197c-15.654,0-28.346-12.691-28.346-28.346v-425.197c0-15.656,12.691-28.347,28.346-28.347H-345.188 M-345.188-1477.945
		h-425.197c-19.489,0-35.346,15.856-35.346,35.347v425.197c0,19.49,15.856,35.346,35.346,35.346h425.197
		c19.489,0,35.346-15.856,35.346-35.346v-425.197C-309.843-1462.088-325.699-1477.945-345.188-1477.945L-345.188-1477.945z"/>
</g>
<g>
	<g>
		<path fill="#231F20" d="M-776.057-1400.805h31.459h31.473c18.529,0,32.43,3.635,41.699,10.923c9.271,7.275,13.9,18.197,13.9,32.75
			c0,14.348-5.463,25.107-16.402,32.286c-10.93,7.167-27.332,10.76-49.201,10.76h-18.385h-18.373v34.471v34.479h-8.092h-8.078
			v-77.833V-1400.805z M-759.887-1388.225v30.773v30.777h18.84h18.842c9.393,0,17.271-0.644,23.648-1.931
			c6.377-1.284,11.252-3.217,14.629-5.785c3.41-2.614,5.969-5.921,7.674-9.92c1.711-3.998,2.559-8.699,2.559-14.089
			c0-9.943-3.783-17.4-11.367-22.37c-7.584-4.971-18.953-7.456-34.115-7.456h-20.355H-759.887z"/>
		<path fill="#231F20" d="M-642.072-1322.339c0-12.649,1.814-23.999,5.434-34.021c3.625-10.034,9.068-18.75,16.324-26.151
			c7.242-7.439,15.648-13.016,25.205-16.736c9.559-3.717,20.275-5.582,32.141-5.582c12.52,0,23.703,1.848,33.535,5.533
			c9.822,3.682,18.314,9.204,25.436,16.571c7.145,7.369,12.484,16.084,16.07,26.148c3.563,10.068,5.344,21.479,5.344,34.238
			c0,12.057-1.781,22.977-5.344,32.761c-3.586,9.782-8.926,18.426-16.07,25.937c-7.121,7.507-15.557,13.135-25.299,16.888
			c-9.732,3.754-20.764,5.633-33.094,5.633c-12.486,0-23.615-1.887-33.387-5.659c-9.771-3.769-18.184-9.424-25.238-16.974
			c-7.023-7.575-12.287-16.249-15.793-26.015C-640.314-1299.532-642.072-1310.389-642.072-1322.339z M-625.902-1322.441
			c0,10.681,1.424,20.225,4.273,28.629c2.85,8.404,7.123,15.675,12.82,21.813c5.705,6.101,12.43,10.672,20.188,13.719
			c7.756,3.052,16.537,4.572,26.355,4.572c9.725,0,18.449-1.52,26.174-4.572c7.703-3.047,14.422-7.619,20.119-13.719
			c5.744-6.138,10.037-13.446,12.91-21.941c2.871-8.496,4.309-18.177,4.309-29.03c0-11.002-1.414-20.755-4.24-29.271
			c-2.842-8.516-7.078-15.781-12.758-21.811c-5.605-6.057-12.346-10.611-20.197-13.645c-7.855-3.025-16.826-4.544-26.904-4.544
			c-9.773,0-18.504,1.588-26.201,4.763c-7.701,3.165-14.357,7.925-19.977,14.274c-5.631,6.311-9.848,13.696-12.652,22.151
			C-624.5-1342.591-625.902-1333.05-625.902-1322.441z"/>
		<path fill="#231F20" d="M-448.523-1291.883c0.344,5.75,1.637,10.931,3.871,15.546c2.227,4.616,5.398,8.671,9.5,12.166
			c4.154,3.485,9.189,6.103,15.127,7.847c5.928,1.745,12.754,2.618,20.479,2.618c6.588,0,12.521-0.682,17.814-2.059
			c5.299-1.377,9.939-3.434,13.947-6.189c4.027-2.746,7.055-6.041,9.057-9.883c2.027-3.842,3.029-8.235,3.029-13.167
			c0-3.421-0.602-6.578-1.805-9.463c-1.201-2.894-3.006-5.521-5.408-7.885c-2.404-2.396-5.486-4.544-9.271-6.449
			c-3.783-1.902-8.244-3.558-13.408-4.971l-19.484-5.024l-19.488-5.021c-11.973-3.244-20.953-8.105-26.963-14.595
			c-5.99-6.488-8.982-14.595-8.982-24.327c0-6.131,1.346-11.719,4.037-16.76c2.693-5.041,6.746-9.536,12.143-13.479
			c5.43-3.95,11.629-6.91,18.643-8.884c6.986-1.977,14.766-2.966,23.334-2.966c9.006,0,17.004,1.068,24.039,3.207
			c7.012,2.126,13.043,5.331,18.074,9.591c5.053,4.266,8.836,9.285,11.35,15.046c2.516,5.762,3.785,12.279,3.785,19.534h-7.855
			h-7.859c0-5.498-0.934-10.381-2.779-14.644c-1.871-4.26-4.652-7.916-8.387-10.949c-3.723-3.065-8.111-5.364-13.139-6.9
			c-5.045-1.528-10.75-2.296-17.092-2.296c-6.17,0-11.787,0.64-16.838,1.93c-5.076,1.285-9.584,3.215-13.529,5.786
			c-3.91,2.577-6.861,5.732-8.82,9.466c-1.957,3.741-2.926,8.058-2.926,12.955c0,6.7,2.723,12.37,8.156,17.002
			c5.453,4.635,13.635,8.238,24.518,10.81l12.908,3.125l12.924,3.116c7.645,1.768,14.332,3.953,20.096,6.557
			c5.764,2.608,10.58,5.641,14.459,9.093c3.918,3.426,6.842,7.288,8.801,11.613c1.959,4.315,2.951,9.083,2.951,14.294
			c0,7.059-1.357,13.357-4.072,18.907c-2.717,5.553-6.791,10.355-12.221,14.409c-5.387,4.019-11.932,7.034-19.609,9.043
			c-7.682,2.007-16.494,3.013-26.467,3.013c-9.615,0-18.225-1.128-25.816-3.385c-7.588-2.255-14.199-5.639-19.781-10.151
			c-5.57-4.512-9.762-9.871-12.559-16.074c-2.785-6.206-4.186-13.253-4.186-21.152h7.857H-448.523z"/>
	</g>
	<g>
		<path fill="#119948" d="M-768.418-1174.658h6.523h6.527v9.79v9.791h0.34h0.334c3.717-6.978,8.607-12.72,14.883-16.714
			c6.275-3.986,13.926-6.244,23.15-6.244c7.648,0,14.906,1.864,20.783,5.625c5.873,3.771,10.379,9.451,12.514,17.106
			c3.49-7.655,8.891-13.335,15.33-17.106c6.443-3.761,13.924-5.625,21.574-5.625c12.711,0,22.332,3.323,28.773,10.076
			c6.441,6.747,9.701,16.93,9.701,30.656v39.376v39.379h-7.086h-7.086v-39.037v-39.047c0-9.558-1.801-16.931-6.135-21.906
			c-4.326-4.977-11.188-7.564-21.32-7.564c-12.264,0-20.137,5.062-24.947,12.828c-4.813,7.756-6.553,18.22-6.553,29.022v32.857
			v32.848h-7.092h-7.084v-39.379v-39.376c0.111-7.875-1.461-15.077-5.314-20.31c-3.857-5.229-9.984-8.49-18.988-8.49
			c-12.262,0-20.871,4.612-26.439,12.261c-5.564,7.651-8.1,18.337-8.215,30.488v32.407v32.398h-7.088h-7.086v-58.055V-1174.658z"/>
		<path fill="#119948" d="M-582.33-1139.106c0.678-13.616,5.797-23.342,14.064-29.67c8.271-6.329,19.689-9.258,32.967-9.258
			c10.234,0,20.926,1.577,29.055,7.032c8.129,5.461,13.689,14.797,13.689,30.321v30.832v30.825c0,2.705,0.682,4.835,2.059,6.298
			c1.373,1.467,3.463,2.256,6.275,2.256c0.785,0,1.637-0.116,2.428-0.287c0.783-0.17,1.514-0.394,2.068-0.618v5.967v5.963
			c-1.578,0.332-2.922,0.559-4.359,0.704c-1.434,0.14-2.949,0.193-4.865,0.193c-7.195,0-11.363-2.025-13.729-5.571
			c-2.361-3.538-2.918-8.607-2.918-14.683h-0.23h-0.219c-4.957,7.544-9.959,13.444-16.52,17.474
			c-6.555,4.016-14.648,6.158-25.785,6.158c-10.688,0-20.424-2.642-27.48-8.215c-7.061-5.571-11.447-14.061-11.447-25.761
			c0-16.312,7.932-24.75,19.689-29.567c11.758-4.806,27.34-5.987,42.645-7.788c5.84-0.676,10.4-1.406,13.49-3.572
			c3.107-2.17,4.729-5.772,4.729-12.185c0-9.559-3.43-15.526-8.949-19.093c-5.5-3.571-13.105-4.752-21.428-4.752
			c-8.77,0-16.426,2.023-21.936,6.413c-5.518,4.387-5.891,7.943-8.611,19.473c-0.273,1.176-5.344,1.111-5.344,1.111H-582.33z
			 M-506.725-1122.004h-0.219h-0.23c-0.893,1.694-2.916,2.813-5.209,3.601c-2.268,0.789-4.803,1.235-6.721,1.577
			c-12.035,2.141-25.531,3.154-36.023,6.468c-10.492,3.322-17.975,8.947-17.975,20.305c0,7.094,3.152,12.829,7.959,16.794
			c4.809,3.97,11.281,6.159,17.92,6.159c10.795,0,20.979-3.432,28.426-9.698c7.469-6.274,12.182-15.384,12.072-26.754v-9.226
			V-1122.004z"/>
		<path fill="#119948" d="M-405.23-1174.637c-12.801-0.033-20.031,1.683-27.881,6.273c-7.854,4.581-13.973,11.613-17.58,20.949
			h-0.227h-0.227v-13.607v-13.615h-6.527h-6.52v58.052v58.057h7.092h7.078v-30.941v-30.938c0-12.042,4.793-22.951,12.77-30.686
			c7.988-7.736,16.428-11.811,31.879-11.636h1.25h5.07h3.943h5.051h5.07v19.852v19.86v19.86v19.857
			c-0.063,4.947,0.307,9.057,1.176,12.435c0.887,3.372,2.27,6.019,4.248,8.044c1.992,2.023,4.568,3.43,7.832,4.326
			c3.266,0.907,7.221,1.3,11.951,1.3c1.068,0,2.117-0.032,3.158-0.07c1.061-0.046,2.096-0.102,3.129-0.155
			c1.055-0.062,2.088-0.117,3.129-0.154c1.063-0.047,2.113-0.075,3.178-0.075v-3.042v-3.036v-3.038v-3.036
			c-1.006,0.116-2.023,0.208-3.027,0.292c-1.023,0.087-2.037,0.156-3.045,0.217c-1.01,0.055-2.025,0.092-3.047,0.125
			c-1.004,0.03-2.021,0.037-3.027,0.037c-2.533-0.161-4.514-0.63-6.061-1.375c-1.553-0.741-2.668-1.769-3.473-3.068
			c-0.807-1.289-1.293-2.85-1.572-4.667c-0.283-1.815-0.377-3.878-0.377-6.19v-19.571v-19.583v-19.574v-19.573h5.92h5.906h3.645
			c0,0,5.701,0.216,7.01-0.74c1.396-1.032,1.148-4.49,1.148-4.49v-0.734v-2.981v-2.983h-5.9h-5.902h-5.906h-5.92v-8.716v-8.725
			v-8.716v-8.715h-3.539h-3.539h-3.555h-3.539v8.715v8.716v8.725v8.716h-5.07h-5.051h-5.072"/>
	</g>
</g>
</svg>
