<svg xmlns="http://www.w3.org/2000/svg" xmlns:xlink="http://www.w3.org/1999/xlink" viewBox="0 0 998 512"><defs><style>.cls-1,.cls-5{fill:#fff;}.cls-1{filter:url(#luminosity-invert-noclip);}.cls-2{mask:url(#mask);}.cls-3{fill:#72cca7;}.cls-4{mask:url(#mask-2);}.cls-5{font-size:115px;font-family:Lato-Black, Lato;font-weight:800;}.cls-6{letter-spacing:-0.02em;}.cls-7{letter-spacing:-0.02em;}.cls-8{filter:url(#luminosity-noclip);}</style><filter id="luminosity-noclip" x="1.51" y="112.4" width="262.77" height="280.98" filterUnits="userSpaceOnUse" color-interpolation-filters="sRGB"><feFlood flood-color="#fff" result="bg"/><feBlend in="SourceGraphic" in2="bg"/></filter><mask id="mask" x="1.51" y="112.4" width="262.77" height="280.98" maskUnits="userSpaceOnUse"><g class="cls-8"><path d="M122.58,221.61a6.77,6.77,0,0,1-2.13,2.28,5.53,5.53,0,0,1-2.84.66,9,9,0,0,1-3.91-1c-1.39-.68-3-1.44-4.82-2.29a45.67,45.67,0,0,0-6.24-2.28,30.13,30.13,0,0,0-8.27-1Q87,218,82.7,221.1a9.77,9.77,0,0,0-4.26,8.22A7.85,7.85,0,0,0,80.62,235a19.65,19.65,0,0,0,5.79,4,56.23,56.23,0,0,0,8.16,3.09q4.58,1.38,9.34,3t9.33,3.7a32.55,32.55,0,0,1,8.17,5.28,23.28,23.28,0,0,1,8,18.41,34.62,34.62,0,0,1-2.74,13.85,30.48,30.48,0,0,1-8,11,37.43,37.43,0,0,1-13,7.2A56.07,56.07,0,0,1,87.78,307a57,57,0,0,1-10.51-1,63.07,63.07,0,0,1-9.84-2.69,54.19,54.19,0,0,1-8.72-4.06,42.15,42.15,0,0,1-7.06-5.07l5.79-9.54a8.11,8.11,0,0,1,2.64-2.64,7.36,7.36,0,0,1,3.85-.91,8.12,8.12,0,0,1,4.42,1.32c1.38.88,3,1.82,4.81,2.84a43.86,43.86,0,0,0,6.45,2.84A28.29,28.29,0,0,0,89,289.49a24.32,24.32,0,0,0,7.66-1.07,16.27,16.27,0,0,0,5.28-2.79,10.4,10.4,0,0,0,3-4,11.94,11.94,0,0,0,1-4.72,8.44,8.44,0,0,0-2.18-6A19.32,19.32,0,0,0,98,266.86a55.37,55.37,0,0,0-8.22-3.09c-3.07-.92-6.22-1.91-9.43-3a87.35,87.35,0,0,1-9.44-3.8,32.05,32.05,0,0,1-8.22-5.53,24.92,24.92,0,0,1-5.78-8.22,28.6,28.6,0,0,1-2.18-11.77,30,30,0,0,1,2.53-12.17,28.58,28.58,0,0,1,7.46-10.1A37.16,37.16,0,0,1,77,202.28a51.24,51.24,0,0,1,17-2.59,52.23,52.23,0,0,1,19.59,3.55,44.22,44.22,0,0,1,14.71,9.34Z"/><path d="M139,339V201h15.28a7.4,7.4,0,0,1,4.15,1.12,5.2,5.2,0,0,1,2.23,3.44l2,9.64a52.57,52.57,0,0,1,14.43-11.67,39.14,39.14,0,0,1,19.07-4.46,34.08,34.08,0,0,1,15.54,3.55,35,35,0,0,1,12.15,10.29,49.68,49.68,0,0,1,7.89,16.63,83.69,83.69,0,0,1,2.78,22.67,71.39,71.39,0,0,1-3.13,21.59,53,53,0,0,1-9,17.24,41.4,41.4,0,0,1-14.07,11.41,41,41,0,0,1-18.47,4.1A37.11,37.11,0,0,1,175,303.87a36.52,36.52,0,0,1-11-7.46V339Zm48.64-119.83a25.55,25.55,0,0,0-13.34,3.3,38.62,38.62,0,0,0-10.3,9.29v46.67a23.91,23.91,0,0,0,9.28,7.36,28.09,28.09,0,0,0,10.81,2.08,24.3,24.3,0,0,0,10.3-2.14,20,20,0,0,0,7.81-6.49,32.17,32.17,0,0,0,4.92-11,62.83,62.83,0,0,0,1.73-15.67,70.32,70.32,0,0,0-1.47-15.48,30.09,30.09,0,0,0-4.22-10.3,16.68,16.68,0,0,0-6.64-5.78A20.73,20.73,0,0,0,187.64,219.17Z"/></g></mask><filter id="luminosity-invert-noclip" x="-124.11" y="-15.61" width="522.11" height="536.98" filterUnits="userSpaceOnUse" color-interpolation-filters="sRGB"><feColorMatrix values="-1 0 0 0 1 0 -1 0 0 1 0 0 -1 0 1 0 0 0 1 0" result="invert"/><feFlood flood-color="#fff" result="bg"/><feBlend in="invert" in2="bg"/></filter><mask id="mask-2" x="-124.11" y="-15.61" width="522.11" height="536.98" maskUnits="userSpaceOnUse"><path class="cls-1" d="M144.38,252.88,376.89,118.63A268.78,268.78,0,0,0,144.38-15.61c-147.29,0-268.49,121.2-268.49,268.49S-2.91,521.37,144.38,521.37A268.77,268.77,0,0,0,376.89,387.12Z"/></mask></defs><g id="Layer_1" data-name="Layer 1"><g class="cls-2"><path class="cls-3" d="M264.28,183.67l-19,10.93a118.47,118.47,0,0,1,0,116.57l19,10.93a140.49,140.49,0,1,1,0-138.43Z"/></g><g class="cls-4"><path class="cls-3" d="M142,156.1a96.78,96.78,0,1,1-96.78,96.78A96.89,96.89,0,0,1,142,156.1m0-21.86A118.64,118.64,0,1,0,260.63,252.88,118.64,118.64,0,0,0,142,134.24Z"/><path class="cls-3" d="M142,112.39a140.49,140.49,0,1,1-99.34,41.15A139.53,139.53,0,0,1,142,112.39m0-21.85A162.34,162.34,0,1,0,304.34,252.88,162.34,162.34,0,0,0,142,90.54Z"/><path class="cls-3" d="M142,68.68A187.32,187.32,0,1,1,9.55,388.45,187.32,187.32,0,0,1,142,68.68m0-21.85C26.48,46.83-67.17,140.48-67.17,256S26.48,465.17,142,465.17,351.17,371.52,351.17,256,257.52,46.83,142,46.83Z"/><path class="cls-3" d="M142,21.85a234.21,234.21,0,0,1,91.13,449.9A234.39,234.39,0,0,1-73.75,347.13,234.09,234.09,0,0,1,142,21.85M142,0C.62,0-114,114.62-114,256S.62,512,142,512,398,397.38,398,256,283.38,0,142,0Z"/></g></g><g id="Layer_2" data-name="Layer 2"><text class="cls-5" transform="translate(479.06 243.46)">Specialist<tspan class="cls-6" x="0" y="100">P</tspan><tspan class="cls-7" x="70.49" y="100">a</tspan><tspan x="130.18" y="100">yments</tspan></text></g></svg>