<svg id="Layer_1" data-name="Layer 1" xmlns="http://www.w3.org/2000/svg" xmlns:xlink="http://www.w3.org/1999/xlink" viewBox="0 0 60 60"><defs><mask id="mask" x="0" y="0" width="60" height="60" maskUnits="userSpaceOnUse"><rect width="60" height="60" style="fill:#fff"/><circle cx="30" cy="30" r="19"/><path d="M30,30H48A18,18,0,1,1,30,12Z" style="fill:#fff"/><path d="M30,30l16.63-6.89a19.52,19.52,0,0,1,.76,2.23,20.08,20.08,0,0,1,.46,2.31Z" style="fill:#fff"/><path d="M30,30,43.27,17.84c.35.39.69.79,1,1.2s.62.85.9,1.29Z" style="fill:#fff"/><path d="M30,30l9-15.59c.23.13.45.27.67.41l.65.44Z" style="fill:#fff"/></mask></defs><rect width="60" height="60" rx="10" style="fill:#72cca7"/><g style="mask:url(#mask)"><circle cx="30" cy="30" r="14" style="fill:none;stroke:#142038;stroke-miterlimit:10;stroke-width:4px"/></g><polygon points="35 16 28 10 28 22 35 16" style="fill:#142038"/></svg>