<svg id="Layer_1" data-name="Layer 1" xmlns="http://www.w3.org/2000/svg" viewBox="0 0 60 60"><rect width="60" height="60" rx="10" style="fill:#72cca7"/><rect x="12" y="19" width="27" height="19" style="fill:#142038"/><path d="M50.57,29.57l-4-4A5.24,5.24,0,0,0,42.82,24H38.47A1.47,1.47,0,0,0,37,25.47V36.53A1.47,1.47,0,0,0,38.47,38H49.53A1.47,1.47,0,0,0,51,36.53V30.61A1.46,1.46,0,0,0,50.57,29.57ZM48,31H40V26h2.16a3.75,3.75,0,0,1,2.65,1.1L47.69,30a1,1,0,0,1,.31.74Z" style="fill:#142038"/><circle cx="20" cy="39" r="4.75" style="fill:#142038"/><path d="M20,35a4,4,0,1,1-4,4,4,4,0,0,1,4-4m0-1.5A5.5,5.5,0,1,0,25.5,39,5.51,5.51,0,0,0,20,33.5Z" style="fill:#72cca7"/><circle cx="43" cy="39" r="4.75" style="fill:#142038"/><path d="M43,35a4,4,0,1,1-4,4,4,4,0,0,1,4-4m0-1.5A5.5,5.5,0,1,0,48.5,39,5.51,5.51,0,0,0,43,33.5Z" style="fill:#72cca7"/><rect x="8" y="23" width="15" height="2" rx="1" style="fill:#72cca7"/><rect x="11" y="27" width="15" height="2" rx="1" style="fill:#72cca7"/><rect x="7" y="21" width="15" height="2" rx="1" style="fill:#142038"/><rect x="11" y="25" width="15" height="2" rx="1" style="fill:#142038"/></svg>