<svg id="Layer_1" data-name="Layer 1" xmlns="http://www.w3.org/2000/svg" viewBox="0 0 60 60">
  <defs>
    <style>
      .cls-1{fill:var(--brandShade);}
      .cls-2,.cls-3,.cls-5{fill:none;stroke-miterlimit:10;}
      .cls-2,.cls-3{stroke:#202026;stroke-width:2px;}
      .cls-3{stroke-dasharray:3 3;}
      .cls-4{fill:#202026;}
      .cls-5{stroke:#2b7a78;}
    </style>
  </defs>
  <rect class="cls-1" style={{ fill: var() }} width="60" height="60"/>
  <polyline class="cls-2" points="29 30 19.26 30 10 30"/>
  <polyline class="cls-2" points="29 24 17 24 17 18"/>
  <circle class="cls-2" cx="17" cy="14" r="3"/>
  <circle class="cls-2" cx="6" cy="30" r="3"/>
  <polyline class="cls-2" points="29 36 17 36 17 42"/>
  <circle class="cls-2" cx="17" cy="46" r="3"/>
  <path class="cls-2" d="M27,20V16.13A2.13,2.13,0,0,1,29.13,14H30a2,2,0,0,1,2,2V44a2,2,0,0,1-2,2H29a2,2,0,0,1-2-2V40.17"/>
  <line class="cls-3" x1="35" y1="30" x2="58" y2="30"/>
  <circle class="cls-4" cx="52" cy="30" r="5"/>
  <polyline class="cls-5" points="49 30 51 32 55 28"/>
  </svg>