<svg id="Layer_1" data-name="Layer 1" xmlns="http://www.w3.org/2000/svg" xmlns:xlink="http://www.w3.org/1999/xlink" viewBox="0 0 60 60"><defs><style>.cls-1,.cls-2,.cls-7{fill:none;stroke-linecap:round;stroke-miterlimit:10;}.cls-1,.cls-2{stroke:#fff;stroke-width:6px;}.cls-1{filter:url(#luminosity-invert-noclip);}.cls-2{filter:url(#luminosity-invert-noclip-2);}.cls-3{fill:#43b185;}.cls-4{mask:url(#mask);}.cls-5{fill:#202026;}.cls-6{mask:url(#mask-2);}.cls-7{stroke:#202026;stroke-width:3px;}</style><filter id="luminosity-invert-noclip" x="18.87" y="9.02" width="32.11" height="32.11" filterUnits="userSpaceOnUse" color-interpolation-filters="sRGB"><feColorMatrix values="-1 0 0 0 1 0 -1 0 0 1 0 0 -1 0 1 0 0 0 1 0" result="invert"/><feFlood flood-color="#fff" result="bg"/><feBlend in="invert" in2="bg"/></filter><mask id="mask" x="18.87" y="9.02" width="32.11" height="32.11" maskUnits="userSpaceOnUse"><line class="cls-1" x1="21.87" y1="38.13" x2="38.13" y2="21.87"/></mask><filter id="luminosity-invert-noclip-2" x="10.02" y="18.87" width="31.11" height="31.11" filterUnits="userSpaceOnUse" color-interpolation-filters="sRGB"><feColorMatrix values="-1 0 0 0 1 0 -1 0 0 1 0 0 -1 0 1 0 0 0 1 0" result="invert"/><feFlood flood-color="#fff" result="bg"/><feBlend in="invert" in2="bg"/></filter><mask id="mask-2" x="10.02" y="18.87" width="31.11" height="31.11" maskUnits="userSpaceOnUse"><line class="cls-2" x1="21.87" y1="38.13" x2="38.13" y2="21.87"/></mask></defs><rect class="cls-3" width="60" height="60"/><g class="cls-4"><path class="cls-5" d="M44.74,11a3.4,3.4,0,0,1,2.42,1l.82.82a3.4,3.4,0,0,1,0,4.83L38.67,27a3.42,3.42,0,0,1-4.83,0L33,26.16a3.4,3.4,0,0,1,0-4.83L42.33,12a3.4,3.4,0,0,1,2.41-1m0-2a5.42,5.42,0,0,0-3.83,1.58L31.6,19.91a5.44,5.44,0,0,0,0,7.66l.83.83a5.43,5.43,0,0,0,7.66,0l9.31-9.31a5.44,5.44,0,0,0,0-7.66l-.83-.83A5.41,5.41,0,0,0,44.74,9Z"/></g><g class="cls-6"><path class="cls-5" d="M24.74,31a3.4,3.4,0,0,1,2.42,1l.82.82a3.4,3.4,0,0,1,0,4.83L18.67,47a3.42,3.42,0,0,1-4.83,0L13,46.16a3.4,3.4,0,0,1,0-4.83L22.33,32a3.4,3.4,0,0,1,2.41-1m0-2a5.42,5.42,0,0,0-3.83,1.58L11.6,39.91a5.44,5.44,0,0,0,0,7.66l.83.83a5.43,5.43,0,0,0,7.66,0l9.31-9.31a5.44,5.44,0,0,0,0-7.66l-.83-.83A5.41,5.41,0,0,0,24.74,29Z"/></g><line class="cls-7" x1="21.87" y1="38.13" x2="38.13" y2="21.87"/></svg>